<svg width="48" height="48" viewBox="0 0 48 48" fill="none" xmlns="http://www.w3.org/2000/svg">
<path fill-rule="evenodd" clip-rule="evenodd" d="M25.6719 18.1864V18.0221C25.664 17.4797 25.3571 16.9841 24.8702 16.7274V10H23.5054V16.7274C23.0224 16.9867 22.7197 17.4818 22.7139 18.0221V18.1864C18.4973 18.9343 15.5598 22.7175 15.9436 26.906C16.3274 31.0944 19.9054 34.3026 24.1903 34.3002C28.4753 34.3026 32.0533 31.0944 32.4371 26.906C32.8209 22.7175 29.8834 18.9343 25.6668 18.1864H25.6719ZM29.7764 22.2098H29.7633C28.8883 21.0167 27.6352 20.141 26.1995 19.7201C26.845 20.4729 27.3796 21.311 27.7875 22.2098H29.7633L29.7815 22.2347L29.7764 22.2098ZM19.5174 26.7561H17.3256C17.3973 27.6237 17.6403 28.4694 18.041 29.2459H19.8624C19.6474 28.4323 19.5316 27.5965 19.5174 26.7561ZM24.8802 22.2048V19.8396C25.5685 20.5377 26.1434 21.3354 26.585 22.2048H24.8802ZM27.5541 25.7055C27.4961 24.872 27.3255 24.0498 27.0467 23.2605H24.8802V25.7055H27.5541ZM23.4953 22.2048H21.618C22.0976 21.2545 22.7355 20.3895 23.5055 19.6454L23.4953 22.2048ZM23.4951 25.7055V23.2605L21.1562 23.2655C20.8738 24.0533 20.6948 24.8733 20.6234 25.7055H23.4951ZM19.5427 25.7005H17.3204C17.3794 24.8539 17.6015 24.0259 17.9749 23.2605H20.0044C19.7546 24.0533 19.6013 24.8723 19.5478 25.7005H19.5427ZM23.4953 26.7561H20.5931C20.6113 27.5997 20.7444 28.437 20.9888 29.2459H23.4953V26.7561ZM23.4952 30.2866V32.9059C23.3837 32.9059 23.2747 32.8848 23.1647 32.8635L23.1647 32.8635C23.1145 32.8537 23.0641 32.844 23.0132 32.8362C22.3322 32.0736 21.7791 31.2097 21.3744 30.2767L23.4952 30.2866ZM26.8235 30.2867H24.8701L24.8752 32.9109C24.9672 32.9025 25.0587 32.8892 25.1492 32.871C25.8435 32.1022 26.4087 31.2299 26.8235 30.2867ZM24.8701 29.231V26.7412H27.5947C27.5772 27.5844 27.4458 28.4217 27.204 29.231H24.8701ZM31.0499 26.7412H28.6704L28.6805 26.7611C28.6536 27.596 28.5276 28.4248 28.3051 29.231H30.3345C30.7352 28.4544 30.9782 27.6088 31.0499 26.7412ZM28.6705 25.6855C28.609 24.8555 28.4506 24.0352 28.1986 23.2406H30.4311C30.8045 24.0059 31.0266 24.8339 31.0856 25.6805L28.6705 25.6855ZM20.4104 22.2048C20.8048 21.3348 21.3168 20.5208 21.9325 19.7848C20.5944 20.2285 19.4331 21.0754 18.6143 22.2048H20.4104ZM18.7157 30.2817H20.2074C20.471 30.9798 20.8113 31.6476 21.2221 32.2735C20.5066 31.9419 19.8545 31.4922 19.2941 30.944C19.0884 30.7344 18.8953 30.5132 18.7157 30.2817ZM27.9906 30.2717C27.6972 31.0236 27.3176 31.7403 26.8591 32.408C27.685 32.0653 28.436 31.57 29.0713 30.949C29.2827 30.735 29.481 30.5089 29.6649 30.2717H27.9906Z" fill="#5B6770"/>
<ellipse cx="8.5987" cy="26.0292" rx="0.5987" ry="0.587587" fill="#5B6770"/>
<ellipse cx="13.4746" cy="26.0292" rx="0.5987" ry="0.587587" fill="#5B6770"/>
<ellipse cx="13.4746" cy="30.6153" rx="0.5987" ry="0.587587" fill="#5B6770"/>
<ellipse cx="13.4746" cy="37.4124" rx="0.5987" ry="0.587587" fill="#5B6770"/>
<ellipse cx="34.353" cy="37.4124" rx="0.5987" ry="0.587587" fill="#5B6770"/>
<ellipse cx="34.353" cy="30.5855" rx="0.5987" ry="0.587587" fill="#5B6770"/>
<ellipse cx="34.353" cy="25.8897" rx="0.5987" ry="0.587587" fill="#5B6770"/>
<ellipse cx="33.2722" cy="20.1732" rx="0.5987" ry="0.587587" fill="#5B6770"/>
<ellipse cx="29.6141" cy="17.5739" rx="0.5987" ry="0.587587" fill="#5B6770"/>
<ellipse cx="18.5889" cy="17.5739" rx="0.5987" ry="0.587587" fill="#5B6770"/>
<ellipse cx="14.8902" cy="20.1832" rx="0.5987" ry="0.587587" fill="#5B6770"/>
<ellipse cx="32.6076" cy="14.636" rx="0.5987" ry="0.587587" fill="#5B6770"/>
<ellipse cx="15.159" cy="14.636" rx="0.5987" ry="0.587587" fill="#5B6770"/>
<ellipse cx="39.4012" cy="25.8897" rx="0.5987" ry="0.587587" fill="#5B6770"/>
<ellipse cx="21.0648" cy="35.7542" rx="0.5987" ry="0.587587" fill="#5B6770"/>
<ellipse cx="26.9706" cy="35.7542" rx="0.5987" ry="0.587587" fill="#5B6770"/>
<ellipse cx="17.0617" cy="34.4545" rx="0.5987" ry="0.587587" fill="#5B6770"/>
<ellipse cx="31.0905" cy="34.4545" rx="0.5987" ry="0.587587" fill="#5B6770"/>
</svg>
