<svg width="48" height="48" viewBox="0 0 48 48" fill="none" xmlns="http://www.w3.org/2000/svg">
<path fill-rule="evenodd" clip-rule="evenodd" d="M39.9408 34.9708L37.1515 24.9289C37.4366 24.5286 37.5149 24.0196 37.363 23.554L36.2198 19.6939C36.2099 19.6515 36.1966 19.6101 36.1798 19.5699C36.1822 19.5493 36.1822 19.5285 36.1798 19.5079C35.9626 18.9444 35.311 18.2963 33.482 18.3809C31.9958 18.5044 30.536 18.8423 29.1494 19.3839L27.6919 16.741C27.5735 16.4864 27.3209 16.3181 27.0371 16.3047C26.7532 16.2914 26.4855 16.4353 26.3431 16.6777C26.2006 16.9201 26.2072 17.2206 26.3601 17.4567L27.7376 19.9587C26.718 20.3924 25.7578 20.9509 24.8797 21.6211C24.5725 21.8632 24.2944 22.1392 24.051 22.4438C23.0721 21.3792 21.8629 20.5452 20.5129 20.0038L21.8847 17.6708C22.0205 17.4403 22.0212 17.1559 21.8866 16.9247C21.752 16.6935 21.5026 16.5506 21.2322 16.5499C20.9618 16.5493 20.7116 16.6908 20.5758 16.9214L19.1125 19.4065C17.7123 18.8177 16.2309 18.4379 14.7171 18.2794C12.8881 18.1667 12.2307 18.8317 12.0021 19.3952V19.4515C11.9862 19.4939 11.9728 19.5372 11.9621 19.5812L10.819 23.4244C10.6935 23.7531 10.6935 24.1156 10.819 24.4443L8.06395 34.8525C7.49238 36.4642 10.9218 37.8955 11.602 38.1716C12.6662 38.5988 13.7934 38.8537 14.94 38.9267C15.6716 38.9267 16.3004 38.7408 16.5576 38.1885L21.7018 29.0201C21.7393 28.9531 21.7663 28.8809 21.7818 28.8059C22.127 28.661 22.4044 28.3935 22.5591 28.0565L24.0795 25.0867L25.5428 28.0339C25.6868 28.3684 25.9545 28.6363 26.2915 28.7834C26.3066 28.8534 26.3296 28.9214 26.3601 28.9863L31.4357 38.2223C31.6929 38.7859 32.3445 39 33.0933 39C34.2001 38.9349 35.2888 38.6932 36.317 38.2843C37.2245 37.9459 38.0818 37.4892 38.8662 36.9262C39.7979 36.2444 40.1523 35.5851 39.9408 34.9708ZM18.3409 20.7195L17.2263 22.6016C14.3684 21.3844 13.4253 20.2461 13.4139 19.9475C13.6425 19.7333 15.2143 19.5417 18.3409 20.7195ZM18.4038 31.2629C18.5109 31.1486 18.6579 31.0781 18.8153 31.0657L19.9584 29.0483H19.8956C18.6013 28.9208 17.3316 28.6154 16.1232 28.141C16.1189 28.4237 15.9245 28.6691 15.6474 28.7416C15.3703 28.8142 15.078 28.6963 14.9321 28.453C14.7861 28.2097 14.822 27.9003 15.02 27.6959C13.9347 27.2361 12.9145 26.6395 11.9849 25.9208L11.5505 27.5832C11.6425 27.5246 11.7497 27.4933 11.8592 27.493C12.0859 27.493 12.2953 27.6122 12.4086 27.8057C12.522 27.9993 12.522 28.2377 12.4086 28.4312C12.2953 28.6248 12.0859 28.744 11.8592 28.744C11.625 28.7538 11.4046 28.6344 11.2876 28.4341L10.1445 32.8802C10.4492 32.9243 10.6766 33.1796 10.6817 33.4832C10.6864 33.6491 10.6239 33.81 10.5081 33.9305C10.3923 34.051 10.2327 34.1212 10.0644 34.1256C9.98454 34.1267 9.9051 34.1134 9.8301 34.0862L9.54431 35.1794C10.2778 35.9064 11.1775 36.4494 12.1678 36.7629C12.4575 36.8766 12.7532 36.9744 13.0538 37.0559V37.0221C13.085 36.698 13.361 36.4505 13.6911 36.4505C14.0212 36.4505 14.2972 36.698 14.3284 37.0221C14.3287 37.1433 14.2951 37.2622 14.2312 37.3658C14.5746 37.4397 14.9281 37.4569 15.2772 37.4165L17.1291 34.1087C16.8424 34.0483 16.6361 33.8004 16.6319 33.5114C16.6273 33.3455 16.6897 33.1845 16.8055 33.064C16.9213 32.9436 17.0809 32.8734 17.2492 32.869C17.425 32.869 17.5936 32.9379 17.7179 33.0605L18.2894 31.9673C18.1747 31.732 18.2203 31.4512 18.4038 31.2629ZM21.176 27.4084V27.4366C20.913 27.6282 19.2898 27.786 16.3176 26.6195C13.3454 25.453 12.2765 24.2358 12.2194 23.9146V23.8864L12.871 21.7338C14.1667 22.8297 15.6569 23.6799 17.2664 24.2414C18.6968 24.835 20.2091 25.2149 21.7533 25.3685H22.1591H22.2048L21.176 27.4084ZM19.747 21.2999L18.6553 23.1539C21.4331 24.1175 22.8621 23.9372 23.0564 23.7343C23.045 23.4525 22.2162 22.4269 19.747 21.2999ZM34.7508 20.0207C34.7508 20.3194 33.7906 21.4408 30.9384 22.6242L29.8867 20.7139C32.979 19.5981 34.5279 19.8066 34.7508 20.0207ZM28.4978 21.2774C25.9372 22.3931 25.0684 23.4187 25.0684 23.7061C25.2798 23.909 26.6974 24.1062 29.5381 23.1595L28.4978 21.2774ZM26.9202 27.4253L25.92 25.4023H26.04C27.7046 25.3094 29.3396 24.9278 30.8698 24.2753C32.4848 23.7307 33.9845 22.8978 35.2938 21.8183L35.9226 23.9822V24.0104C35.8924 24.1126 35.8397 24.2069 35.7683 24.2865C35.3567 24.7993 34.1907 25.7404 31.8187 26.6421C28.8007 27.7973 27.1832 27.6226 26.9202 27.4253ZM35.1528 36.4202C35.4629 36.3737 35.761 36.5577 35.854 36.853C36.837 36.5365 37.7315 35.9982 38.4661 35.2808L37.5459 31.9673C37.4377 32.1795 37.2151 32.3111 36.9743 32.3054C36.6239 32.3054 36.3399 32.0254 36.3399 31.6799C36.3399 31.3344 36.6239 31.0544 36.9743 31.0544C37.0937 31.0541 37.2107 31.0874 37.3116 31.1502L36.6085 28.6256C36.438 28.5094 36.3373 28.3172 36.3399 28.1128C36.3386 28.0251 36.3582 27.9382 36.397 27.8592L35.9226 26.1687L35.854 26.225C35.8742 26.2871 35.8857 26.3515 35.8883 26.4166C35.8883 26.584 35.8209 26.7446 35.7008 26.8629C35.5808 26.9813 35.418 27.0478 35.2482 27.0478C35.093 27.048 34.9436 26.9895 34.8309 26.8844C34.4365 27.1098 34.025 27.3239 33.602 27.5211C33.9148 27.614 34.105 27.9259 34.0414 28.2418C33.9779 28.5577 33.6814 28.7744 33.3563 28.7425C33.0312 28.7106 32.7838 28.4405 32.7847 28.1185C32.7834 28.0264 32.805 27.9355 32.8475 27.8536L32.3331 28.0565C30.9875 28.5938 29.5673 28.9282 28.1206 29.0483L28.3092 29.392C28.5314 29.4944 28.6738 29.7138 28.675 29.9555C28.6781 29.9855 28.6781 30.0157 28.675 30.0457L29.3266 31.2347C29.5213 31.0527 29.8112 31.0111 30.0504 31.1309C30.2897 31.2506 30.4267 31.5058 30.3925 31.7682C30.3583 32.0306 30.1604 32.2435 29.8982 32.2998L32.7275 37.4729C33.3784 37.5265 34.0336 37.4498 34.6537 37.2475C34.629 37.1806 34.6154 37.1101 34.6137 37.039C34.6135 36.7297 34.8427 36.4667 35.1528 36.4202Z" fill="#5B6770"/>
<path d="M18.5753 15.0054C18.7133 15.1186 18.8873 15.1805 19.0668 15.1801C19.3844 15.1788 19.6677 14.9831 19.7773 14.6892C19.8869 14.3953 19.7996 14.0652 19.5584 13.8615L18.0666 12.6161C17.8706 12.3943 17.5611 12.306 17.2753 12.3903C16.9895 12.4747 16.7801 12.7161 16.74 13.0076C16.6999 13.2991 16.8365 13.5867 17.0892 13.7431L18.5753 15.0054Z" fill="#5B6770"/>
<path d="M21.7875 14.1094C21.9453 14.4953 22.3906 14.682 22.7821 14.5264C23.1735 14.3708 23.3629 13.9318 23.205 13.5459L21.6618 9.60127C21.5039 9.21535 21.0587 9.02865 20.6672 9.18426C20.2758 9.33987 20.0864 9.77887 20.2443 10.1648L21.7875 14.1094Z" fill="#5B6770"/>
<path d="M28.8522 15.1801C29.0319 15.1814 29.2063 15.1195 29.3438 15.0054L30.8642 13.76C31.1193 13.4797 31.1239 13.0563 30.8748 12.7707C30.6257 12.4851 30.2004 12.4262 29.8811 12.633L28.395 13.8784C28.1545 14.0814 28.0669 14.4101 28.175 14.7034C28.2831 14.9968 28.5642 15.1934 28.8808 15.197L28.8522 15.1801Z" fill="#5B6770"/>
<path d="M25.1484 14.5377C25.236 14.5708 25.3289 14.588 25.4227 14.5884C25.7361 14.5867 26.0169 14.397 26.1315 14.1094L27.6748 10.1648C27.8468 9.90989 27.8443 9.57741 27.6684 9.32505C27.4926 9.07269 27.1786 8.9512 26.8756 9.0182C26.5725 9.08519 26.3413 9.3272 26.2915 9.62944L24.7426 13.5741C24.5948 13.9506 24.7736 14.3751 25.1484 14.5377Z" fill="#5B6770"/>
<ellipse cx="33.4191" cy="31.6855" rx="0.63445" ry="0.625505" fill="#5B6770"/>
<ellipse cx="35.2482" cy="33.5" rx="0.63445" ry="0.625505" fill="#5B6770"/>
<ellipse cx="31.5901" cy="33.5" rx="0.63445" ry="0.625505" fill="#5B6770"/>
<ellipse cx="37.0772" cy="35.2526" rx="0.63445" ry="0.625505" fill="#5B6770"/>
<ellipse cx="35.2482" cy="29.9555" rx="0.63445" ry="0.625505" fill="#5B6770"/>
<path d="M31.6072 30.5641C31.871 30.558 32.1039 30.393 32.1939 30.1485C32.2839 29.9041 32.2126 29.6302 32.0143 29.4587C31.816 29.2872 31.5313 29.2532 31.2972 29.373C31.063 29.4929 30.9275 29.742 30.9556 30.0006C30.9886 30.3282 31.2735 30.5746 31.6072 30.5641Z" fill="#5B6770"/>
<path d="M17.1863 29.33C16.9269 29.3347 16.696 29.4932 16.6016 29.7314C16.5073 29.9697 16.568 30.2405 16.7555 30.4172C16.943 30.594 17.2202 30.6417 17.4573 30.5381C17.6945 30.4344 17.8448 30.1999 17.8379 29.9443C17.8285 29.5979 17.5377 29.3237 17.1863 29.33Z" fill="#5B6770"/>
<path d="M13.6826 30.5641C13.9463 30.558 14.1792 30.393 14.2692 30.1485C14.3592 29.9041 14.2879 29.6302 14.0896 29.4587C13.8913 29.2872 13.6066 29.2532 13.3725 29.373C13.1384 29.4929 13.0028 29.742 13.031 30.0006C13.0691 30.3256 13.3508 30.5692 13.6826 30.5641Z" fill="#5B6770"/>
<path d="M15.4601 31.06C15.1128 31.0693 14.8377 31.3522 14.8429 31.6947C14.8481 32.0371 15.1317 32.3118 15.479 32.3108C15.8264 32.3099 16.1085 32.0337 16.1117 31.6912C16.115 31.5209 16.047 31.3567 15.9237 31.2373C15.8005 31.1179 15.6328 31.0538 15.4601 31.06Z" fill="#5B6770"/>
<path d="M11.9278 31.0601C11.5797 31.0663 11.3017 31.3479 11.3048 31.6911C11.308 32.0343 11.5911 32.3109 11.9392 32.311C12.2874 32.311 12.5705 32.0344 12.5737 31.6912C12.5753 31.5224 12.5075 31.3601 12.3859 31.2412C12.2642 31.1224 12.099 31.057 11.9278 31.0601Z" fill="#5B6770"/>
<path d="M13.7168 32.869C13.4575 32.8736 13.2266 33.0321 13.1322 33.2704C13.0378 33.5086 13.0986 33.7794 13.2861 33.9562C13.4736 34.1329 13.7508 34.1806 13.9879 34.077C14.2251 33.9734 14.3754 33.7389 14.3684 33.4832C14.3561 33.1381 14.067 32.8657 13.7168 32.869Z" fill="#5B6770"/>
<path d="M15.4316 34.6271C15.0821 34.6365 14.8062 34.9228 14.8146 35.2674C14.823 35.612 15.1125 35.8849 15.4621 35.8778C15.8116 35.8706 16.0894 35.586 16.0832 35.2414C16.0738 34.895 15.783 34.6208 15.4316 34.6271Z" fill="#5B6770"/>
<path d="M11.8878 34.6271C11.5383 34.6365 11.2624 34.9228 11.2708 35.2674C11.2791 35.612 11.5687 35.8849 11.9182 35.8777C12.2678 35.8706 12.5455 35.586 12.5394 35.2413C12.5364 35.0744 12.4659 34.9156 12.3435 34.8003C12.2211 34.6849 12.057 34.6226 11.8878 34.6271Z" fill="#5B6770"/>
<ellipse cx="33.4191" cy="35.2526" rx="0.63445" ry="0.625505" fill="#5B6770"/>
</svg>
