<svg width="48" height="48" viewBox="0 0 48 48" fill="none" xmlns="http://www.w3.org/2000/svg">
<path fill-rule="evenodd" clip-rule="evenodd" d="M35.1818 13.7241H33.1364V10.8276C33.1364 10.3705 32.7701 10 32.3182 10C31.8663 10 31.5 10.3705 31.5 10.8276V13.7241H16.6364V10.8276C16.6364 10.3705 16.2701 10 15.8182 10C15.3663 10 15 10.3705 15 10.8276V13.7241H12.8182C12.3663 13.7241 12 14.0947 12 14.5517V37.1724C12 37.6295 12.3663 38 12.8182 38H35.1818C35.6337 38 36 37.6295 36 37.1724V14.5517C36 14.0947 35.6337 13.7241 35.1818 13.7241ZM15.0001 15.3793V15.5173C15.0001 15.9743 15.3664 16.3448 15.8183 16.3448C16.2702 16.3448 16.6365 15.9743 16.6365 15.5173V15.3793H19.2656C19.2656 15.7724 19.5806 16.091 19.9692 16.091C20.3578 16.091 20.6728 15.7724 20.6728 15.3793H23.4001C23.4323 15.7497 23.7389 16.0337 24.1065 16.0337C24.474 16.0337 24.7806 15.7497 24.8128 15.3793H27.5074C27.5396 15.7497 27.8462 16.0337 28.2137 16.0337C28.5813 16.0337 28.8879 15.7497 28.9201 15.3793H31.511V15.5173C31.511 15.9743 31.8773 16.3448 32.3292 16.3448C32.7811 16.3448 33.1474 15.9743 33.1474 15.5173V15.3793H34.3637V16.5766C33.992 16.6323 33.7166 16.955 33.7166 17.3352C33.7166 17.7153 33.992 18.0381 34.3637 18.0938V19.749H33.011C33.0333 19.6795 33.0444 19.6068 33.0437 19.5338C33.0437 19.1346 32.7238 18.811 32.3292 18.811C31.9346 18.811 31.6147 19.1346 31.6147 19.5338C31.614 19.6068 31.6251 19.6795 31.6474 19.749H28.9092C28.9289 19.6789 28.9399 19.6066 28.9419 19.5338C28.9419 19.1346 28.622 18.811 28.2274 18.811C27.8328 18.811 27.5128 19.1346 27.5128 19.5338C27.5131 19.6064 27.5223 19.6787 27.5401 19.749H24.8128C24.8306 19.6787 24.8398 19.6064 24.8401 19.5338C24.8401 19.1346 24.5202 18.811 24.1256 18.811C23.7309 18.811 23.411 19.1346 23.411 19.5338C23.4131 19.6066 23.424 19.6789 23.4437 19.749H20.651C20.6733 19.6795 20.6844 19.6068 20.6837 19.5338C20.6837 19.1346 20.3638 18.811 19.9692 18.811C19.5746 18.811 19.2547 19.1346 19.2547 19.5338C19.254 19.6068 19.2651 19.6795 19.2874 19.749H16.5274C16.5471 19.6789 16.5581 19.6066 16.5601 19.5338C16.5663 19.1257 16.2488 18.7874 15.8456 18.7724C15.6502 18.7782 15.4652 18.8623 15.3312 19.0061C15.1971 19.1499 15.1251 19.3418 15.131 19.5393C15.1223 19.6108 15.1223 19.683 15.131 19.7545H13.6365V18.0993C13.6944 18.1078 13.7531 18.1078 13.811 18.0993C14.2034 18.0656 14.505 17.7335 14.505 17.3352C14.505 16.9368 14.2034 16.6048 13.811 16.571C13.7507 16.5787 13.6919 16.5955 13.6365 16.6207V15.3793H15.0001ZM13.6365 21.4097V36.3448H34.3637V21.4097H13.6365Z" fill="#5B6770"/>
<path fill-rule="evenodd" clip-rule="evenodd" d="M31.7891 24.9683C31.787 24.597 31.5009 24.2908 31.1346 24.2676C31.1116 23.897 30.8089 23.6077 30.4418 23.6055C30.0776 23.607 29.7747 23.8894 29.7437 24.2565H27.9164C27.8845 23.8921 27.5826 23.6127 27.2209 23.6127C26.8592 23.6127 26.5574 23.8921 26.5255 24.2565H24.6928C24.6928 23.8696 24.3826 23.5558 24 23.5558C23.6174 23.5558 23.3073 23.8696 23.3073 24.2565H21.4746C21.4426 23.8921 21.1408 23.6127 20.7791 23.6127C20.4174 23.6127 20.1156 23.8921 20.0837 24.2565H18.2564C18.2253 23.8894 17.9224 23.607 17.5582 23.6055C17.1911 23.6077 16.8884 23.897 16.8655 24.2676C16.4991 24.2908 16.2131 24.597 16.2109 24.9683C16.2124 25.3367 16.4917 25.6431 16.8546 25.6745V28.1738C16.4943 28.2061 16.218 28.5114 16.218 28.8772C16.218 29.2431 16.4943 29.5484 16.8546 29.5807V32.069C16.4943 32.1013 16.218 32.4065 16.218 32.7724C16.218 33.1383 16.4943 33.4435 16.8546 33.4758C16.8775 33.8464 17.1802 34.1357 17.5473 34.1379C17.9115 34.1364 18.2144 33.854 18.2455 33.4869H20.0728C20.1047 33.8513 20.4065 34.1307 20.7682 34.1307C21.1299 34.1307 21.4317 33.8513 21.4637 33.4869H23.2964C23.2964 33.8739 23.6065 34.1876 23.9891 34.1876C24.3717 34.1876 24.6818 33.8739 24.6818 33.4869H26.5146C26.5465 33.8513 26.8483 34.1307 27.21 34.1307C27.5717 34.1307 27.8735 33.8513 27.9055 33.4869H29.7328C29.7638 33.854 30.0667 34.1364 30.4309 34.1379C30.798 34.1357 31.1007 33.8464 31.1237 33.4758C31.484 33.4435 31.7602 33.1383 31.7602 32.7724C31.7602 32.4065 31.484 32.1013 31.1237 32.069V29.5807C31.484 29.5484 31.7602 29.2431 31.7602 28.8772C31.7602 28.5114 31.484 28.2061 31.1237 28.1738V25.6745C31.4952 25.6541 31.7868 25.3446 31.7891 24.9683ZM23.2909 28.1628H21.4855V25.6855H23.2909V28.1628ZM26.5144 25.6855H24.709V28.1628H26.5144V25.6855ZM20.0727 28.1628H18.2672V25.6855H20.0727V28.1628ZM20.0727 32.069V29.5917H18.2672V32.069H20.0727ZM21.4855 29.5917H23.2909V32.069H21.4855V29.5917ZM26.5144 29.5917H24.709V32.069H26.5144V29.5917ZM27.9274 29.5917H29.7328V32.069H27.9274V29.5917ZM27.9274 25.6855V28.1628H29.7328V25.6855H27.9274Z" fill="#5B6770"/>
<ellipse cx="17.9346" cy="17.3324" rx="0.714545" ry="0.766896" fill="#5B6770"/>
<path d="M22.0636 18.0993C22.3736 18.1174 22.6632 17.9424 22.7944 17.6577C22.9256 17.3731 22.872 17.0363 22.659 16.8077C22.4461 16.5791 22.1168 16.505 21.8281 16.6206C21.5394 16.7363 21.3496 17.0183 21.3491 17.3324C21.3432 17.53 21.4152 17.7218 21.5492 17.8656C21.6833 18.0095 21.8683 18.0935 22.0636 18.0993Z" fill="#5B6770"/>
<path d="M30.2946 18.0993C30.6046 18.1174 30.8942 17.9424 31.0254 17.6577C31.1566 17.3731 31.103 17.0363 30.89 16.8077C30.677 16.5791 30.3478 16.505 30.0591 16.6206C29.7704 16.7363 29.5806 17.0183 29.58 17.3324C29.5742 17.53 29.6462 17.7218 29.7802 17.8656C29.9142 18.0095 30.0993 18.0935 30.2946 18.0993Z" fill="#5B6770"/>
<path d="M26.1818 18.0993C26.5743 18.0656 26.8758 17.7335 26.8758 17.3352C26.8758 16.9368 26.5743 16.6048 26.1818 16.571C25.7894 16.6048 25.4879 16.9368 25.4879 17.3352C25.4879 17.7335 25.7894 18.0656 26.1818 18.0993Z" fill="#5B6770"/>
</svg>
