<svg width="26" height="23" viewBox="0 0 26 23" fill="none" xmlns="http://www.w3.org/2000/svg">
<path d="M8.51365 6.02918C8.22698 5.83442 7.84266 5.87102 7.59775 6.1164C7.35283 6.36178 7.3163 6.74683 7.51069 7.03405L10.4143 9.94816C10.5476 10.0813 10.7275 10.157 10.9157 10.1592C11.1035 10.155 11.2827 10.0795 11.4172 9.94816C11.6822 9.66579 11.6822 9.22566 11.4172 8.94329L8.51365 6.02918Z" fill="#5B6770"/>
<path d="M10.6651 11.3901C10.6651 10.9878 10.3396 10.6616 9.93797 10.6616H1.22226C0.820671 10.6616 0.495117 10.9878 0.495117 11.3901C0.495117 11.7925 0.820671 12.1187 1.22226 12.1187H9.93797C10.3396 12.1187 10.6651 11.7925 10.6651 11.3901Z" fill="#5B6770"/>
<path d="M12.8464 13.5657C12.4448 13.5657 12.1192 13.8919 12.1192 14.2942V22.0769C12.0965 22.3507 12.2294 22.6141 12.463 22.758C12.6966 22.9019 12.9911 22.9019 13.2247 22.758C13.4583 22.6141 13.5912 22.3507 13.5685 22.0769V14.3143C13.5753 14.1181 13.5022 13.9276 13.3661 13.7864C13.2299 13.6453 13.0423 13.5656 12.8464 13.5657Z" fill="#5B6770"/>
<path d="M17.6958 16.9772C17.9862 16.9685 18.2441 16.7884 18.3527 16.5183C18.4614 16.2483 18.4004 15.9394 18.1972 15.7312L15.3037 12.8221C15.0179 12.5494 14.5671 12.5549 14.288 12.8345C14.009 13.1141 14.0035 13.5657 14.2757 13.8521L17.1792 16.7612C17.317 16.8975 17.5021 16.975 17.6958 16.9772Z" fill="#5B6770"/>
<path d="M25.1928 11.3901C25.1929 10.9936 24.8764 10.6698 24.4807 10.6616H15.75C15.3484 10.6616 15.0228 10.9878 15.0228 11.3901C15.0228 11.7925 15.3484 12.1187 15.75 12.1187H24.4807C24.8764 12.1105 25.1929 11.7867 25.1928 11.3901Z" fill="#5B6770"/>
<path d="M14.7821 10.1743C14.9703 10.1721 15.1502 10.0964 15.2835 9.96324L19.1449 6.0945C19.3584 5.80721 19.3318 5.40705 19.0822 5.15067C18.8325 4.89429 18.4339 4.85776 18.142 5.06451L14.2806 8.93325C14.076 9.1402 14.0141 9.44932 14.1232 9.71929C14.2323 9.98925 14.4914 10.1682 14.7821 10.1743Z" fill="#5B6770"/>
<path d="M12.8464 0C12.4448 0 12.1192 0.326173 12.1192 0.728529V8.49113C12.0965 8.76493 12.2294 9.02827 12.463 9.17218C12.6966 9.31608 12.9911 9.31608 13.2247 9.17218C13.4583 9.02827 13.5912 8.76493 13.5685 8.49113V0.728529C13.5698 0.535774 13.4943 0.350455 13.3588 0.213683C13.2232 0.0769108 13.0388 -4.64799e-06 12.8464 0Z" fill="#5B6770"/>
</svg>
