<svg width="87" height="84" viewBox="0 0 87 84" fill="none" xmlns="http://www.w3.org/2000/svg">
<path fill-rule="evenodd" clip-rule="evenodd" d="M72.1693 60.5733L66.8155 43.2695C67.3038 42.5726 67.4214 41.6917 67.1332 40.8897L64.9495 34.2393C64.9302 34.1664 64.9048 34.095 64.8735 34.0258C64.8769 33.9902 64.876 33.9543 64.871 33.9187C64.4631 32.9487 63.2825 31.8403 60.0472 32.0186C57.4207 32.2582 54.8498 32.8679 52.4168 33.8282L49.7268 29.2868C49.5066 28.8488 49.0523 28.5624 48.5492 28.5444C48.046 28.5263 47.578 28.7796 47.3357 29.201C47.0935 29.6224 47.1176 30.1416 47.3981 30.5469L49.9406 34.8463C48.153 35.6136 46.4758 36.5957 44.9487 37.7693C44.4146 38.1931 43.9336 38.675 43.5151 39.2056C41.7379 37.383 39.5623 35.9632 37.1493 35.0513L39.4821 30.9957C39.713 30.595 39.7026 30.1035 39.4547 29.7063C39.2068 29.3091 38.7592 29.0667 38.2803 29.0702C37.8015 29.0738 37.3643 29.3229 37.1334 29.7236L34.645 34.0438C32.1412 33.051 29.5023 32.4207 26.8152 32.1736C23.5718 32.011 22.4353 33.1716 22.0538 34.1494L22.0561 34.2468C22.0296 34.3203 22.0077 34.3953 21.9906 34.4715L20.1251 41.1328C19.9165 41.7031 19.9315 42.3295 20.1672 42.8954L15.7186 60.9298C14.7731 63.7249 20.9049 66.1379 22.1207 66.6031C24.0228 67.3225 26.0292 67.7433 28.0627 67.8493C29.3582 67.8364 30.4638 67.504 30.8965 66.5451L39.6269 50.6111C39.6906 50.4947 39.7354 50.3694 39.7597 50.2396C40.365 49.983 40.8452 49.5159 41.1053 48.9308L43.6748 43.7722L46.3876 48.8393C46.6565 49.4148 47.1415 49.8731 47.7444 50.1213C47.774 50.2419 47.8175 50.3591 47.8742 50.4706L57.2433 66.3417C57.722 67.311 58.8847 67.6696 60.2105 67.6564C62.1676 67.5245 64.0855 67.0876 65.8893 66.3629C67.4822 65.7622 68.9816 64.9578 70.3473 63.9712C71.9689 62.7766 72.5692 61.631 72.1693 60.5733ZM33.3328 36.3263L31.4369 39.5984C26.326 37.5453 24.609 35.5948 24.5764 35.0789C24.9724 34.7049 27.7478 34.3461 33.3328 36.3263ZM33.8795 54.5448C34.0646 54.3453 34.3219 54.221 34.6001 54.1968L36.541 50.6905L36.4297 50.6916C34.1327 50.494 31.8716 49.9887 29.7123 49.1902C29.7164 49.6787 29.3823 50.1062 28.8946 50.2364C28.4069 50.3667 27.8845 50.1681 27.616 49.7502C27.3475 49.3323 27.3983 48.7971 27.7405 48.4403C25.7996 47.665 23.9685 46.6518 22.2928 45.4263L21.5923 48.3066C21.7528 48.2037 21.9412 48.1478 22.1351 48.1454C22.5365 48.1414 22.9123 48.3437 23.121 48.6761C23.3296 49.0086 23.3395 49.4206 23.1468 49.757C22.9541 50.0935 22.5881 50.3032 22.1868 50.3072C21.7724 50.3283 21.3773 50.1257 21.1619 49.7816L19.3212 57.485C19.8626 57.5558 20.2759 57.9929 20.2975 58.5175C20.3125 58.8041 20.2086 59.0833 20.0085 59.2935C19.8085 59.5037 19.5288 59.6278 19.231 59.6384C19.0895 59.6418 18.9483 59.6201 18.8144 59.5744L18.3535 61.4686C19.6824 62.712 21.2979 63.6346 23.0645 64.1588C23.582 64.3502 24.1098 64.514 24.6454 64.6495L24.644 64.5911C24.6858 64.0306 25.1643 63.598 25.7489 63.5922C26.3335 63.5864 26.8324 64.0093 26.901 64.5687C26.9065 64.7781 26.8519 64.9843 26.7431 65.1644C27.3543 65.2861 27.9809 65.3095 28.5974 65.2336L31.74 59.4849C31.2298 59.3855 30.8542 58.9609 30.8348 58.4614C30.8198 58.1748 30.9238 57.8956 31.1238 57.6854C31.3239 57.4751 31.6036 57.3511 31.9014 57.3405C32.2127 57.3375 32.5141 57.4536 32.7392 57.6633L33.7062 55.7641C33.4933 55.3595 33.5624 54.8734 33.8795 54.5448ZM38.6292 47.8353L38.6304 47.884C38.1727 48.2197 35.3049 48.5209 29.9937 46.5575C24.6825 44.594 22.7396 42.5094 22.6251 41.9554L22.6239 41.9067L23.6888 38.1754C26.0286 40.0464 28.7025 41.4893 31.5756 42.4314C34.1331 43.4319 36.8266 44.0617 39.5672 44.3L40.2858 44.2928L40.3668 44.292L38.6292 47.8353ZM35.8466 37.3046L33.99 40.5275C38.9487 42.1438 41.4716 41.8071 41.8073 41.4531C41.7754 40.9664 40.2655 39.2087 35.8466 37.3046ZM62.3618 34.8301C62.3741 35.3462 60.7201 37.3009 55.7185 39.3961L53.7773 36.1134C59.2068 34.1309 61.9582 34.4639 62.3618 34.8301ZM51.3412 37.1116C46.853 39.0848 45.3569 40.8724 45.3688 41.369C45.7516 41.7159 48.2698 42.0317 53.261 40.3458L51.3412 37.1116ZM48.8016 47.7634L46.9468 44.2851L47.1594 44.283C50.1031 44.0931 52.9825 43.405 55.6652 42.2504C58.5025 41.2809 61.1236 39.8153 63.3976 37.9269L64.6002 41.6551L64.6014 41.7038C64.5522 41.8809 64.4628 42.0447 64.3395 42.1837C63.632 43.0771 61.6061 44.7238 57.4431 46.3236C52.1468 48.373 49.2753 48.0996 48.8016 47.7634ZM63.7508 63.1622C64.298 63.0764 64.8334 63.389 65.0104 63.8977C66.7379 63.3335 68.2995 62.3875 69.5709 61.1348L67.8045 55.4252C67.6217 55.7937 67.233 56.0251 66.8064 56.0195C66.1859 56.0257 65.6713 55.5467 65.6571 54.9497C65.6428 54.3528 66.1342 53.8638 66.7547 53.8577C66.966 53.8551 67.1745 53.9105 67.3558 54.0173L66.0066 49.6671C65.6999 49.4692 65.5137 49.1388 65.5098 48.7857C65.5039 48.634 65.535 48.4836 65.6005 48.3464L64.6906 45.4334L64.5715 45.532C64.6098 45.6389 64.6328 45.7501 64.6401 45.8625C64.6471 46.1518 64.5343 46.4304 64.3266 46.637C64.1189 46.8437 63.8333 46.9614 63.5326 46.9644C63.2579 46.9675 62.991 46.8691 62.787 46.6894C62.098 47.0858 61.3781 47.4631 60.6373 47.8114C61.1951 47.9663 61.5447 48.5019 61.4452 49.049C61.3456 49.596 60.8295 49.9757 60.2526 49.9263C59.6756 49.8769 59.2264 49.4146 59.2146 48.858C59.2085 48.699 59.243 48.5415 59.315 48.3992L58.4125 48.7588C56.0519 49.7111 53.551 50.3138 50.9942 50.5468L51.3423 51.1375C51.7399 51.3105 52.0012 51.6871 52.0134 52.1048C52.02 52.1566 52.0212 52.2088 52.0171 52.2606L53.22 54.3039C53.5573 53.9859 54.0688 53.9089 54.4974 54.1116C54.926 54.3144 55.1791 54.753 55.1294 55.2071C55.0797 55.6611 54.7381 56.0324 54.2761 56.1343L59.4997 65.0239C60.6546 65.105 61.8116 64.961 62.9013 64.6005C62.8546 64.4853 62.8278 64.3638 62.8218 64.2409C62.8087 63.7064 63.2036 63.248 63.7508 63.1622Z" fill="white"/>
<path d="M33.5119 26.4477C33.761 26.641 34.0716 26.7448 34.3896 26.741C34.9519 26.7332 35.4455 26.3899 35.6274 25.8801C35.8093 25.3703 35.641 24.8014 35.2055 24.4536L32.5125 22.3278C32.1563 21.948 31.6047 21.8008 31.102 21.9516C30.5994 22.1024 30.2387 22.5233 30.1797 23.0277C30.1207 23.5321 30.3744 24.0268 30.8283 24.2926L33.5119 26.4477Z" fill="white"/>
<path d="M39.1629 24.8432C39.4583 25.5073 40.2545 25.8221 40.9412 25.5463C41.6279 25.2705 41.9451 24.5086 41.6497 23.8445L38.7541 17.0551C38.4586 16.391 37.6625 16.0762 36.9758 16.352C36.2891 16.6278 35.9719 17.3897 36.2673 18.0539L39.1629 24.8432Z" fill="white"/>
<path d="M51.7171 26.5688C52.0354 26.568 52.3415 26.4579 52.5803 26.2583L55.2211 24.0794C55.6614 23.5906 55.652 22.8588 55.1991 22.3697C54.7462 21.8806 53.9906 21.7862 53.4337 22.1492L50.8536 24.3274C50.4363 24.6825 50.2947 25.252 50.4982 25.7571C50.7017 26.2621 51.2077 26.5969 51.7684 26.5975L51.7171 26.5688Z" fill="white"/>
<path d="M45.1317 25.5243C45.2882 25.5799 45.4535 25.6079 45.6197 25.6071C46.1745 25.5987 46.6638 25.2659 46.8549 24.7669L49.4247 17.9232C49.7189 17.4797 49.7007 16.9052 49.3789 16.4722C49.057 16.0392 48.4961 15.8348 47.9622 15.9559C47.4284 16.077 47.0289 16.4993 46.9533 17.0224L44.3733 23.8662C44.1273 24.5195 44.4614 25.2499 45.1317 25.5243V25.5243Z" fill="white"/>
<ellipse rx="1.1235" ry="1.08121" transform="matrix(0.999951 -0.00993789 0.0238919 0.999714 60.4852 55.0107)" fill="white"/>
<ellipse rx="1.12351" ry="1.08121" transform="matrix(0.999951 -0.00993789 0.0238919 0.999714 63.7992 58.1142)" fill="white"/>
<ellipse rx="1.12351" ry="1.08121" transform="matrix(0.999951 -0.00993789 0.0238919 0.999714 57.3216 58.1786)" fill="white"/>
<ellipse rx="1.1235" ry="1.08121" transform="matrix(0.999951 -0.00993789 0.0238919 0.999714 67.1102 61.1108)" fill="white"/>
<ellipse rx="1.12351" ry="1.08121" transform="matrix(0.999951 -0.00993789 0.0238919 0.999714 63.6527 51.9892)" fill="white"/>
<path d="M57.2305 53.105C57.6973 53.0898 58.1029 52.8006 58.2522 52.3765C58.4015 51.9525 58.2639 51.4805 57.9057 51.1876C57.5474 50.8947 57.0419 50.841 56.6322 51.0522C56.2226 51.2634 55.9928 51.6963 56.0534 52.1427C56.1253 52.7083 56.6399 53.129 57.2305 53.105V53.105Z" fill="white"/>
<path d="M31.6437 51.2259C31.1846 51.2386 30.7824 51.5165 30.6251 51.9299C30.4678 52.3432 30.5866 52.8101 30.9259 53.1123C31.2652 53.4144 31.7579 53.492 32.1736 53.3087C32.5893 53.1255 32.8457 52.7176 32.8229 52.2759C32.792 51.6775 32.2657 51.2089 31.6437 51.2259Z" fill="white"/>
<path d="M25.4908 53.4204C25.9575 53.4052 26.3631 53.116 26.5124 52.692C26.6617 52.2679 26.5241 51.7959 26.1659 51.503C25.8077 51.2102 25.3021 51.1564 24.8925 51.3676C24.4829 51.5788 24.2531 52.0118 24.3137 52.4581C24.3946 53.019 24.9035 53.435 25.4908 53.4204Z" fill="white"/>
<path d="M28.6585 54.2462C28.044 54.2683 27.5685 54.762 27.5918 55.3537C27.6151 55.9454 28.1286 56.415 28.7437 56.4073C29.3588 56.3995 29.8467 55.9173 29.8384 55.3254C29.8371 55.031 29.7099 54.7485 29.4867 54.5444C29.2635 54.3402 28.964 54.2324 28.6585 54.2462Z" fill="white"/>
<path d="M22.4039 54.3081C21.7878 54.3249 21.3072 54.8164 21.3269 55.4095C21.3466 56.0025 21.8593 56.4756 22.4758 56.4695C23.0923 56.4634 23.5822 55.9805 23.5737 55.3873C23.5695 55.0955 23.4429 54.8163 23.2226 54.613C23.0023 54.4098 22.707 54.2998 22.4039 54.3081Z" fill="white"/>
<path d="M25.6467 57.4026C25.1876 57.4152 24.7853 57.6932 24.628 58.1065C24.4707 58.5198 24.5895 58.9868 24.9288 59.2889C25.2681 59.591 25.7609 59.6686 26.1765 59.4853C26.5922 59.3021 26.8486 58.8942 26.8258 58.4525C26.7897 57.8565 26.2666 57.3907 25.6467 57.4026V57.4026Z" fill="white"/>
<path d="M28.7555 60.4107C28.1371 60.4331 27.6603 60.9327 27.6894 61.528C27.7185 62.1233 28.2425 62.5899 28.8611 62.5714C29.4797 62.5528 29.9599 62.0561 29.9347 61.4607C29.9038 60.8623 29.3775 60.3936 28.7555 60.4107V60.4107Z" fill="white"/>
<path d="M22.4801 60.4729C21.8617 60.4953 21.3849 60.9949 21.414 61.5902C21.4431 62.1856 21.9671 62.6521 22.5857 62.6336C23.2044 62.615 23.6845 62.1183 23.6593 61.5229C23.6471 61.2345 23.5157 60.9614 23.2942 60.7642C23.0728 60.567 22.7797 60.4621 22.4801 60.4729Z" fill="white"/>
<ellipse rx="1.1235" ry="1.08121" transform="matrix(0.999951 -0.00993789 0.0238919 0.999714 60.6327 61.1752)" fill="white"/>
</svg>
