<svg width="48" height="48" viewBox="0 0 48 48" fill="none" xmlns="http://www.w3.org/2000/svg">
<path d="M18.7987 11.8C19.0205 11.8219 19.2407 11.7447 19.3983 11.5896C19.556 11.4346 19.6345 11.2182 19.6122 11C19.6122 9.72533 19.0699 9 18.7987 9C18.5275 9 17.9851 9.72533 17.9851 11C17.9649 11.2177 18.044 11.4329 18.2012 11.5875C18.3584 11.7421 18.5773 11.8199 18.7987 11.8Z" fill="#5B6770"/>
<path d="M29.223 11.8C29.4449 11.8219 29.665 11.7447 29.8227 11.5896C29.9803 11.4346 30.0589 11.2182 30.0366 11C30.0366 9.72533 29.4942 9 29.223 9C28.9519 9 28.4095 9.72533 28.4095 11C28.3872 11.2182 28.4657 11.4346 28.6234 11.5896C28.7811 11.7447 29.0012 11.8219 29.223 11.8Z" fill="#5B6770"/>
<path fill-rule="evenodd" clip-rule="evenodd" d="M37.8305 18.9947V33.592C39.1652 34.2859 40.0001 35.6488 40 37.1333C40 37.6284 39.8 38.1032 39.444 38.4533C39.088 38.8033 38.6052 39 38.1017 39H9.89831C8.8499 39 8 38.1643 8 37.1333C7.99985 35.6488 8.83479 34.2859 10.1695 33.592V18.9947C10.1668 18.9538 10.1668 18.9128 10.1695 18.872V18.632C10.1697 18.4026 10.2681 18.1838 10.4407 18.0293C10.7849 17.4692 11.4022 17.1272 12.0678 17.128H17.8658V13.6667C17.8658 13.2248 18.23 12.8667 18.6793 12.8667C19.1286 12.8667 19.4929 13.2248 19.4929 13.6667V17.128H23.2895V13.6667C23.2895 13.2248 23.6537 12.8667 24.1031 12.8667C24.5524 12.8667 24.9166 13.2248 24.9166 13.6667V17.128H28.3878V13.6667C28.3878 13.2248 28.752 12.8667 29.2014 12.8667C29.6507 12.8667 30.0149 13.2248 30.0149 13.6667V17.128H35.9214C36.5878 17.124 37.2066 17.4668 37.5485 18.0293C37.7273 18.1802 37.8303 18.4003 37.8305 18.632V18.872V18.9947ZM34.3606 20.34C35.2602 20.3792 36.0494 19.7551 36.2034 18.8827C36.1593 18.789 36.0642 18.7288 35.9593 18.728H32.6562C32.7311 19.6104 33.461 20.3008 34.3606 20.34ZM20.583 18.728C20.4952 19.631 19.7238 20.3204 18.8013 20.3204C17.8789 20.3204 17.1075 19.631 17.0197 18.728H20.583ZM24.0135 20.3204C24.936 20.3204 25.7073 19.631 25.7952 18.728H22.2318C22.3197 19.631 23.091 20.3204 24.0135 20.3204ZM31.0074 18.728C30.9196 19.631 30.1482 20.3204 29.2257 20.3204C28.3033 20.3204 27.5319 19.631 27.444 18.728H31.0074ZM15.3708 18.728H12.0678C11.9629 18.7288 11.8678 18.789 11.8237 18.8827C11.9777 19.7551 12.7669 20.3792 13.6665 20.34C14.5661 20.3008 15.296 19.6104 15.3708 18.728ZM11.7966 33.128V31.6027C12.1209 31.5613 12.3636 31.2896 12.3636 30.968C12.3636 30.6464 12.1209 30.3748 11.7966 30.3334V27.7894C12.1238 27.7477 12.3687 27.4738 12.3687 27.1494C12.3687 26.825 12.1238 26.551 11.7966 26.5094V24.0027C12.1317 23.9725 12.3881 23.6962 12.3881 23.3654C12.3881 23.0345 12.1317 22.7582 11.7966 22.728V21.4427C13.2333 22.3034 15.0919 22.0195 16.1953 20.7707C16.8514 21.512 17.8019 21.9376 18.8014 21.9376C19.8008 21.9376 20.7513 21.512 21.4075 20.7707C22.0636 21.512 23.0141 21.9376 24.0136 21.9376C25.013 21.9376 25.9635 21.512 26.6197 20.7707C27.2748 21.5118 28.2244 21.9374 29.2231 21.9374C30.2217 21.9374 31.1713 21.5118 31.8265 20.7707C32.9271 22.008 34.7716 22.2912 36.2034 21.4427V33.128H33.5621C33.5967 33.045 33.615 32.9564 33.6163 32.8667C33.6391 32.6192 33.5176 32.3803 33.3027 32.2496C33.0877 32.1189 32.8161 32.1189 32.6011 32.2496C32.3861 32.3803 32.2647 32.6192 32.2875 32.8667C32.2887 32.9564 32.3071 33.045 32.3417 33.128H29.6949C29.7338 33.0462 29.7542 32.957 29.7546 32.8667C29.7546 32.5044 29.4559 32.2107 29.0875 32.2107C28.719 32.2107 28.4204 32.5044 28.4204 32.8667C28.4208 32.957 28.4411 33.0462 28.48 33.128H25.8332C25.8678 33.045 25.8862 32.9564 25.8875 32.8667C25.9102 32.6192 25.7888 32.3803 25.5738 32.2496C25.3589 32.1189 25.0873 32.1189 24.8723 32.2496C24.6573 32.3803 24.5359 32.6192 24.5587 32.8667C24.5599 32.9564 24.5783 33.045 24.6129 33.128H21.9661C22.005 33.0462 22.0254 32.957 22.0258 32.8667C22.0258 32.5044 21.7271 32.2107 21.3587 32.2107C20.9902 32.2107 20.6915 32.5044 20.6915 32.8667C20.692 32.957 20.7123 33.0462 20.7512 33.128H18.1044C18.139 33.045 18.1574 32.9564 18.1587 32.8667C18.1814 32.6192 18.06 32.3803 17.845 32.2496C17.6301 32.1189 17.3585 32.1189 17.1435 32.2496C16.9285 32.3803 16.8071 32.6192 16.8299 32.8667C16.8311 32.9564 16.8495 33.045 16.8841 33.128H14.2373C14.2762 33.0462 14.2966 32.957 14.297 32.8667C14.297 32.5044 13.9983 32.2107 13.6299 32.2107C13.2614 32.2107 12.9627 32.5044 12.9627 32.8667C12.9631 32.957 12.9835 33.0462 13.0224 33.128H11.7966ZM9.89832 37.3947H38.1234V37.4C38.2646 37.3889 38.3734 37.2727 38.3729 37.1334C38.3761 35.8193 37.3063 34.746 35.9702 34.7227H12.057C10.7136 34.7344 9.63006 35.807 9.62714 37.128C9.62714 37.2753 9.74855 37.3947 9.89832 37.3947Z" fill="#5B6770"/>
<path d="M23.9892 11.8C24.2128 11.8254 24.4361 11.7497 24.5963 11.5942C24.7565 11.4387 24.8364 11.2202 24.8136 11C24.8136 9.72533 24.2712 9 23.9892 9C23.7072 9 23.1865 9.72533 23.1865 11C23.1647 11.2161 23.2419 11.4306 23.397 11.5852C23.5521 11.7398 23.7691 11.8185 23.9892 11.8Z" fill="#5B6770"/>
<ellipse cx="15.5769" cy="23.368" rx="0.667119" ry="0.656" fill="#5B6770"/>
<ellipse cx="19.4441" cy="23.368" rx="0.667119" ry="0.656" fill="#5B6770"/>
<ellipse cx="23.3057" cy="23.368" rx="0.667119" ry="0.656" fill="#5B6770"/>
<ellipse cx="27.1729" cy="23.368" rx="0.667119" ry="0.656" fill="#5B6770"/>
<ellipse cx="31.0346" cy="23.368" rx="0.667119" ry="0.656" fill="#5B6770"/>
<ellipse cx="34.9017" cy="23.368" rx="0.667119" ry="0.656" fill="#5B6770"/>
<ellipse cx="13.6298" cy="25.2667" rx="0.667119" ry="0.656" fill="#5B6770"/>
<ellipse cx="17.4915" cy="25.2667" rx="0.667119" ry="0.656" fill="#5B6770"/>
<ellipse cx="21.3586" cy="25.2667" rx="0.667119" ry="0.656" fill="#5B6770"/>
<ellipse cx="25.2203" cy="25.2667" rx="0.667119" ry="0.656" fill="#5B6770"/>
<ellipse cx="29.0875" cy="25.2667" rx="0.667119" ry="0.656" fill="#5B6770"/>
<ellipse cx="32.9492" cy="25.2667" rx="0.667119" ry="0.656" fill="#5B6770"/>
<ellipse cx="15.5769" cy="27.1493" rx="0.667119" ry="0.656" fill="#5B6770"/>
<ellipse cx="19.4441" cy="27.1493" rx="0.667119" ry="0.656" fill="#5B6770"/>
<ellipse cx="23.3057" cy="27.1493" rx="0.667119" ry="0.656" fill="#5B6770"/>
<ellipse cx="27.1729" cy="27.1493" rx="0.667119" ry="0.656" fill="#5B6770"/>
<ellipse cx="31.0346" cy="27.1493" rx="0.667119" ry="0.656" fill="#5B6770"/>
<ellipse cx="34.9017" cy="27.1493" rx="0.667119" ry="0.656" fill="#5B6770"/>
<ellipse cx="13.6298" cy="29.048" rx="0.667119" ry="0.656" fill="#5B6770"/>
<ellipse cx="17.4915" cy="29.048" rx="0.667119" ry="0.656" fill="#5B6770"/>
<ellipse cx="21.3586" cy="29.048" rx="0.667119" ry="0.656" fill="#5B6770"/>
<ellipse cx="25.2203" cy="29.048" rx="0.667119" ry="0.656" fill="#5B6770"/>
<ellipse cx="29.0875" cy="29.048" rx="0.667119" ry="0.656" fill="#5B6770"/>
<ellipse cx="32.9492" cy="29.048" rx="0.667119" ry="0.656" fill="#5B6770"/>
<ellipse cx="15.5769" cy="30.968" rx="0.667119" ry="0.656" fill="#5B6770"/>
<ellipse cx="19.4441" cy="30.968" rx="0.667119" ry="0.656" fill="#5B6770"/>
<ellipse cx="23.3057" cy="30.968" rx="0.667119" ry="0.656" fill="#5B6770"/>
<ellipse cx="27.1729" cy="30.968" rx="0.667119" ry="0.656" fill="#5B6770"/>
<ellipse cx="31.0346" cy="30.968" rx="0.667119" ry="0.656" fill="#5B6770"/>
<ellipse cx="34.9017" cy="30.968" rx="0.667119" ry="0.656" fill="#5B6770"/>
</svg>
