<svg width="48" height="48" viewBox="0 0 48 48" fill="none" xmlns="http://www.w3.org/2000/svg">
<path d="M17.5137 14.0292C17.227 13.8344 16.8427 13.871 16.5977 14.1164C16.3528 14.3618 16.3163 14.7468 16.5107 15.034L19.4143 17.9482C19.5476 18.0813 19.7275 18.157 19.9157 18.1592C20.1035 18.155 20.2827 18.0795 20.4172 17.9482C20.6822 17.6658 20.6822 17.2257 20.4172 16.9433L17.5137 14.0292Z" fill="#5B6770"/>
<path d="M19.6651 19.3901C19.6651 18.9878 19.3396 18.6616 18.938 18.6616H10.2223C9.82067 18.6616 9.49512 18.9878 9.49512 19.3901C9.49512 19.7925 9.82067 20.1187 10.2223 20.1187H18.938C19.3396 20.1187 19.6651 19.7925 19.6651 19.3901Z" fill="#5B6770"/>
<path d="M21.8464 21.5657C21.4448 21.5657 21.1192 21.8919 21.1192 22.2942V30.0769C21.0965 30.3507 21.2294 30.6141 21.463 30.758C21.6966 30.9019 21.9911 30.9019 22.2247 30.758C22.4583 30.6141 22.5912 30.3507 22.5685 30.0769V22.3143C22.5753 22.1181 22.5022 21.9276 22.3661 21.7864C22.2299 21.6453 22.0423 21.5656 21.8464 21.5657Z" fill="#5B6770"/>
<path d="M26.6958 24.9772C26.9862 24.9685 27.2441 24.7884 27.3527 24.5183C27.4614 24.2483 27.4004 23.9394 27.1972 23.7312L24.3037 20.8221C24.0179 20.5494 23.5671 20.5549 23.288 20.8345C23.009 21.1141 23.0035 21.5657 23.2757 21.8521L26.1792 24.7612C26.317 24.8975 26.5021 24.975 26.6958 24.9772Z" fill="#5B6770"/>
<path d="M34.1928 19.3901C34.1929 18.9936 33.8764 18.6698 33.4807 18.6616H24.75C24.3484 18.6616 24.0228 18.9878 24.0228 19.3901C24.0228 19.7925 24.3484 20.1187 24.75 20.1187H33.4807C33.8764 20.1105 34.1929 19.7867 34.1928 19.3901V19.3901Z" fill="#5B6770"/>
<path d="M23.7821 18.1743C23.9703 18.1721 24.1502 18.0964 24.2835 17.9632L28.1449 14.0945C28.3584 13.8072 28.3318 13.407 28.0822 13.1507C27.8325 12.8943 27.4339 12.8578 27.142 13.0645L23.2806 16.9333C23.076 17.1402 23.0141 17.4493 23.1232 17.7193C23.2323 17.9893 23.4914 18.1682 23.7821 18.1743V18.1743Z" fill="#5B6770"/>
<path d="M21.8464 8C21.4448 8 21.1192 8.32617 21.1192 8.72853V16.4911C21.0965 16.7649 21.2294 17.0283 21.463 17.1722C21.6966 17.3161 21.9911 17.3161 22.2247 17.1722C22.4583 17.0283 22.5912 16.7649 22.5685 16.4911V8.72853C22.5698 8.53577 22.4943 8.35045 22.3588 8.21368C22.2232 8.07691 22.0388 8 21.8464 8Z" fill="#5B6770"/>
<path d="M10.0768 30.5592C9.71834 30.4011 9.29926 30.5559 9.12897 30.9093C8.95869 31.2627 9.0984 31.6877 9.44496 31.8706C9.54324 31.9187 9.65151 31.9428 9.76089 31.9409C10.0976 31.9381 10.3884 31.704 10.4636 31.3751C10.5388 31.0462 10.3787 30.7087 10.0768 30.5592Z" fill="#5B6770"/>
<path d="M19.6701 20.6563C19.4872 20.7139 19.3349 20.8425 19.2472 21.0134C19.1596 21.1842 19.1439 21.3832 19.2037 21.5657C19.3009 21.8639 19.5776 22.0663 19.8907 22.0681C19.9695 22.0699 20.0479 22.0562 20.1214 22.0279C20.5008 21.9031 20.7074 21.4937 20.5828 21.1135C20.4581 20.7334 20.0495 20.5264 19.6701 20.6513V20.6563Z" fill="#5B6770"/>
<path d="M8.87817 33.2121C8.51926 33.1358 8.15985 33.3394 8.04 33.6868C7.92016 34.0343 8.07744 34.4167 8.40678 34.5787C8.48711 34.6083 8.57196 34.6236 8.65752 34.624C9.0085 34.6209 9.30718 34.367 9.36747 34.0206C9.42776 33.6742 9.23246 33.3341 8.90325 33.2121H8.87817Z" fill="#5B6770"/>
<path d="M16.8918 21.9224C16.6064 22.086 16.4672 22.4221 16.5534 22.74C16.6395 23.058 16.9291 23.2775 17.2579 23.274C17.3865 23.2726 17.5126 23.238 17.624 23.1735C17.847 23.0425 17.9834 22.8022 17.9816 22.5431C17.9799 22.284 17.8404 22.0456 17.6156 21.9176C17.3908 21.7896 17.1149 21.7914 16.8918 21.9224Z" fill="#5B6770"/>
<path d="M14.4245 23.7011C14.1937 23.9037 14.1146 24.2298 14.2271 24.516C14.3395 24.8021 14.6192 24.9867 14.926 24.9773C15.1016 24.9774 15.2711 24.9131 15.4024 24.7964C15.7043 24.5258 15.7301 24.0613 15.4601 23.7589C15.1901 23.4564 14.7264 23.4305 14.4245 23.7011Z" fill="#5B6770"/>
<path d="M11.561 28.0622C11.2258 27.8849 10.8109 27.9953 10.6077 28.3158C10.4045 28.6363 10.481 29.0595 10.7837 29.2881C10.8981 29.3642 11.0325 29.4044 11.1698 29.4037C11.4922 29.4029 11.7756 29.1895 11.866 28.8795C11.9564 28.5694 11.8322 28.2368 11.561 28.0622Z" fill="#5B6770"/>
<path d="M12.3283 25.8615C12.0846 26.1666 12.1244 26.6099 12.4186 26.8664C12.5488 26.9772 12.7142 27.0378 12.885 27.0372C13.2223 27.0378 13.5157 26.8059 13.5937 26.4771C13.6716 26.1483 13.5137 25.8089 13.2121 25.6575C12.9106 25.506 12.5447 25.5822 12.3283 25.8414V25.8615Z" fill="#5B6770"/>
<path d="M30.1208 26.6353C29.8335 26.4537 29.459 26.4956 29.2187 26.7363C28.9785 26.977 28.9366 27.3523 29.1179 27.6402L30.0857 28.6098C30.2197 28.7427 30.3989 28.8198 30.5872 28.8259C30.8777 28.8171 31.1355 28.637 31.2442 28.367C31.3529 28.097 31.2919 27.7881 31.0887 27.5799L30.1208 26.6353Z" fill="#5B6770"/>
<path d="M32.5128 21.5657C32.1112 21.5657 31.7856 21.8919 31.7856 22.2942V27.1477C31.7856 27.5501 32.1112 27.8763 32.5128 27.8763C32.9144 27.8763 33.2399 27.5501 33.2399 27.1477V22.2993C33.2413 22.1052 33.1653 21.9186 33.0287 21.7809C32.8922 21.6431 32.7065 21.5657 32.5128 21.5657V21.5657Z" fill="#5B6770"/>
<path d="M33.9371 28.635C34.0699 28.7695 34.2498 28.847 34.4386 28.851C34.6269 28.8449 34.8061 28.7678 34.9401 28.635L35.9079 27.6653C36.0892 27.3774 36.0473 27.0021 35.8071 26.7614C35.5668 26.5207 35.1923 26.4788 34.905 26.6604L33.9371 27.5949C33.7965 27.7312 33.717 27.9189 33.717 28.1149C33.717 28.311 33.7965 28.4987 33.9371 28.635Z" fill="#5B6770"/>
<path d="M40 30.0619C40 29.6595 39.6744 29.3333 39.2729 29.3333H35.4165C35.0149 29.3333 34.6893 29.6595 34.6893 30.0619C34.6893 30.4642 35.0149 30.7904 35.4165 30.7904H39.2929C39.6866 30.7795 40.0001 30.4565 40 30.0619Z" fill="#5B6770"/>
<path d="M32.5128 32.2475C32.1131 32.2475 31.7884 32.5706 31.7856 32.971V35.8851C31.7856 36.2874 32.1112 36.6136 32.5128 36.6136C32.9144 36.6136 33.2399 36.2874 33.2399 35.8851V32.971C33.2372 32.5706 32.9124 32.2475 32.5128 32.2475V32.2475Z" fill="#5B6770"/>
<path d="M30.0607 31.4888L29.0929 32.4585C28.8279 32.7408 28.8279 33.181 29.0929 33.4633C29.2262 33.5965 29.4061 33.6722 29.5943 33.6744C29.7824 33.6711 29.9619 33.5956 30.0958 33.4633L31.0637 32.4936C31.2449 32.2058 31.2031 31.8305 30.9628 31.5898C30.7226 31.3491 30.3481 31.3072 30.0607 31.4888Z" fill="#5B6770"/>
<path d="M30.3315 30.0619C30.3328 29.8691 30.2573 29.6838 30.1218 29.547C29.9862 29.4103 29.8018 29.3333 29.6094 29.3333H26.7008C26.2992 29.3333 25.9736 29.6595 25.9736 30.0619C25.9736 30.4642 26.2992 30.7904 26.7008 30.7904H29.6094C29.8018 30.7904 29.9862 30.7135 30.1218 30.5767C30.2573 30.4399 30.3328 30.2546 30.3315 30.0619Z" fill="#5B6770"/>
<path d="M35.948 33.5789C35.6443 33.8267 35.5911 34.271 35.8277 34.5838C35.9634 34.7592 36.1728 34.8613 36.3943 34.8601C36.5571 34.8601 36.7155 34.8072 36.8457 34.7094C37.1628 34.461 37.2189 34.0021 36.971 33.6844C36.7232 33.3667 36.2651 33.3104 35.948 33.5588V33.5789Z" fill="#5B6770"/>
<path d="M38.8365 38.5932C38.5127 38.7203 38.324 39.0593 38.3863 39.4021C38.4487 39.7449 38.7445 39.9955 39.0923 40C39.1816 40.0004 39.2702 39.9833 39.353 39.9498C39.6007 39.8643 39.7828 39.6512 39.8288 39.3928C39.8748 39.1344 39.7776 38.8713 39.5747 38.7053C39.3718 38.5393 39.0951 38.4964 38.8516 38.5932H38.8365Z" fill="#5B6770"/>
<path d="M33.937 31.4838C33.7992 31.6206 33.7217 31.8069 33.7217 32.0013C33.7217 32.1956 33.7992 32.382 33.937 32.5188C34.2238 32.8009 34.6833 32.8009 34.9701 32.5188C35.2375 32.2374 35.2375 31.7953 34.9701 31.5139C34.6916 31.2232 34.2319 31.2098 33.937 31.4838Z" fill="#5B6770"/>
<path d="M38.5958 36.277C38.4353 35.9563 38.0658 35.8004 37.7247 35.9095C37.3836 36.0186 37.1726 36.3602 37.2272 36.7147C37.2818 37.0692 37.5859 37.3311 37.9439 37.3321C38.0584 37.3317 38.1714 37.3059 38.2749 37.2567C38.6294 37.0714 38.7717 36.6367 38.5958 36.277Z" fill="#5B6770"/>
</svg>
