<svg width="48" height="48" viewBox="0 0 48 48" fill="none" xmlns="http://www.w3.org/2000/svg">
<path fill-rule="evenodd" clip-rule="evenodd" d="M29.3506 13.3333C29.3506 16.2789 26.9619 18.6667 24.0153 18.6667C21.07 18.6633 18.6833 16.2775 18.6799 13.3333C18.6799 10.3878 21.0687 8 24.0153 8C26.9619 8 29.3506 10.3878 29.3506 13.3333ZM27.5315 13.3333C27.5315 11.3919 25.9571 9.81813 24.015 9.81813C22.0729 9.81813 20.4985 11.3919 20.4985 13.3333C20.4985 15.2747 22.0729 16.8484 24.015 16.8484C25.9571 16.8484 27.5315 15.2747 27.5315 13.3333Z" fill="#5B6770"/>
<path d="M21.4565 27.8C21.4565 29.2606 23.2754 30.4242 25.4702 30.4242C27.665 30.4242 29.4778 29.2121 29.4778 27.7757C29.4778 26.3394 27.6589 25.1333 25.4702 25.1333C23.2815 25.1333 21.4565 26.3454 21.4565 27.8Z" fill="#5B6770"/>
<path d="M25.7855 20.3878H22.2145C18.7837 20.3912 16.0033 23.1705 16 26.5999V38.9636C16 39.4657 16.4072 39.8727 16.9094 39.8727C17.4117 39.8727 17.8189 39.4657 17.8189 38.9636V36.8666C18.1656 36.8031 18.4194 36.5038 18.4252 36.1515C18.4242 35.7973 18.1682 35.4953 17.8189 35.4363V32.5696C18.1682 32.5106 18.4242 32.2086 18.4252 31.8545C18.4194 31.5021 18.1656 31.2028 17.8189 31.1393V28.5333C18.1656 28.4698 18.4194 28.1705 18.4252 27.8181C18.4242 27.464 18.1682 27.162 17.8189 27.103V26.5999C17.8222 24.1746 19.7882 22.2093 22.2145 22.206H25.7855C28.2118 22.2093 30.1778 24.1746 30.1811 26.5999V31.1393C30.1387 31.1365 30.0962 31.1365 30.0538 31.1393C29.7724 31.1139 29.5009 31.2496 29.3523 31.4898C29.2038 31.73 29.2038 32.0335 29.3523 32.2737C29.5009 32.514 29.7724 32.6496 30.0538 32.6242C30.0962 32.6271 30.1387 32.6271 30.1811 32.6242V35.4787C30.1387 35.4759 30.0962 35.4759 30.0538 35.4787C29.6419 35.4787 29.3081 35.8125 29.3081 36.2242C29.3081 36.6359 29.6419 36.9697 30.0538 36.9697C30.0961 36.9752 30.1389 36.9752 30.1811 36.9697V39.0909C30.1811 39.5929 30.5883 40 31.0906 40C31.5928 40 32 39.5929 32 39.0909V26.5999C31.9967 23.1705 29.2163 20.3912 25.7855 20.3878Z" fill="#5B6770"/>
<ellipse cx="19.65" cy="25.5879" rx="0.745737" ry="0.745455" fill="#5B6770"/>
<ellipse cx="26.0646" cy="23.6001" rx="0.745737" ry="0.745455" fill="#5B6770"/>
<ellipse cx="21.7658" cy="23.6001" rx="0.745737" ry="0.745455" fill="#5B6770"/>
<ellipse cx="19.65" cy="29.7152" rx="0.745737" ry="0.745455" fill="#5B6770"/>
<ellipse cx="19.65" cy="33.8485" rx="0.745737" ry="0.745455" fill="#5B6770"/>
<ellipse cx="28.2409" cy="33.8485" rx="0.745737" ry="0.745455" fill="#5B6770"/>
<ellipse cx="23.9484" cy="33.8485" rx="0.745737" ry="0.745455" fill="#5B6770"/>
<ellipse cx="19.65" cy="38.1394" rx="0.745737" ry="0.745455" fill="#5B6770"/>
<ellipse cx="28.2409" cy="38.1394" rx="0.745737" ry="0.745455" fill="#5B6770"/>
<ellipse cx="23.9484" cy="38.1394" rx="0.745737" ry="0.745455" fill="#5B6770"/>
<ellipse cx="26.0646" cy="31.8546" rx="0.745737" ry="0.745455" fill="#5B6770"/>
<ellipse cx="21.7658" cy="31.8546" rx="0.745737" ry="0.745455" fill="#5B6770"/>
<ellipse cx="26.0646" cy="36.097" rx="0.745737" ry="0.745455" fill="#5B6770"/>
<ellipse cx="21.7658" cy="36.097" rx="0.745737" ry="0.745455" fill="#5B6770"/>
</svg>
