<svg width="48" height="48" viewBox="0 0 48 48" fill="none" xmlns="http://www.w3.org/2000/svg">
<path d="M35.9762 34.3402H29.3095C28.915 34.3402 28.5952 34.66 28.5952 35.0545C28.5952 35.449 28.915 35.7688 29.3095 35.7688H35.9762C36.3707 35.7688 36.6905 35.449 36.6905 35.0545C36.6905 34.66 36.3707 34.3402 35.9762 34.3402Z" fill="#5B6770"/>
<path d="M35.9762 21.6299H29.3095C28.915 21.6299 28.5952 21.9496 28.5952 22.3441C28.5952 22.7386 28.915 23.0584 29.3095 23.0584H35.9762C36.3707 23.0584 36.6905 22.7386 36.6905 22.3441C36.6905 21.9496 36.3707 21.6299 35.9762 21.6299V21.6299Z" fill="#5B6770"/>
<path d="M32.6381 25.1785C32.9563 25.1785 33.2143 24.9205 33.2143 24.6023C33.2143 24.2841 32.9563 24.0261 32.6381 24.0261C32.3199 24.0261 32.0619 24.2841 32.0619 24.6023C32.0619 24.9205 32.3199 25.1785 32.6381 25.1785Z" fill="#5B6770"/>
<path d="M36.0191 25.1785C36.3373 25.1785 36.5953 24.9205 36.5953 24.6023C36.5953 24.2841 36.3373 24.0261 36.0191 24.0261C35.7008 24.0261 35.4429 24.2841 35.4429 24.6023C35.4429 24.9205 35.7008 25.1785 36.0191 25.1785Z" fill="#5B6770"/>
<path d="M32.6381 28.5657C32.9563 28.5657 33.2143 28.3077 33.2143 27.9895C33.2143 27.6713 32.9563 27.4133 32.6381 27.4133C32.3199 27.4133 32.0619 27.6713 32.0619 27.9895C32.0619 28.3077 32.3199 28.5657 32.6381 28.5657Z" fill="#5B6770"/>
<path d="M36.019 28.5657C36.2538 28.5656 36.465 28.4231 36.5529 28.2054C36.6409 27.9878 36.588 27.7385 36.4192 27.5753C36.2505 27.4121 35.9996 27.3677 35.785 27.4629C35.5704 27.5581 35.4351 27.774 35.4428 28.0086C35.4531 28.3193 35.7081 28.5659 36.019 28.5657Z" fill="#5B6770"/>
<path d="M34.3286 26.8698C34.5625 26.8736 34.7755 26.7357 34.8677 26.5207C34.9599 26.3058 34.913 26.0564 34.749 25.8896C34.5849 25.7229 34.3364 25.6718 34.1199 25.7604C33.9034 25.849 33.762 26.0597 33.762 26.2936C33.7619 26.6081 34.0141 26.8646 34.3286 26.8698Z" fill="#5B6770"/>
<path d="M30.9429 26.8698C31.2611 26.8698 31.5191 26.6118 31.5191 26.2936C31.5191 25.9753 31.2611 25.7174 30.9429 25.7174C30.6247 25.7174 30.3667 25.9753 30.3667 26.2936C30.3667 26.6118 30.6247 26.8698 30.9429 26.8698Z" fill="#5B6770"/>
<path d="M34.3286 30.2569C34.5625 30.2608 34.7755 30.1229 34.8677 29.9079C34.9599 29.6929 34.913 29.4436 34.749 29.2768C34.5849 29.11 34.3364 29.059 34.1199 29.1476C33.9034 29.2362 33.762 29.4468 33.762 29.6807C33.7619 29.9953 34.0141 30.2517 34.3286 30.2569Z" fill="#5B6770"/>
<path d="M30.9429 30.257C31.2611 30.257 31.5191 29.999 31.5191 29.6808C31.5191 29.3626 31.2611 29.1046 30.9429 29.1046C30.6247 29.1046 30.3667 29.3626 30.3667 29.6808C30.3667 29.999 30.6247 30.257 30.9429 30.257Z" fill="#5B6770"/>
<path d="M32.6381 31.9482C32.9563 31.9482 33.2143 31.6902 33.2143 31.372C33.2143 31.0538 32.9563 30.7958 32.6381 30.7958C32.3199 30.7958 32.0619 31.0538 32.0619 31.372C32.0619 31.6902 32.3199 31.9482 32.6381 31.9482Z" fill="#5B6770"/>
<path d="M36.0191 31.9482C36.3373 31.9482 36.5953 31.6902 36.5953 31.372C36.5953 31.0538 36.3373 30.7958 36.0191 30.7958C35.7008 30.7958 35.4429 31.0538 35.4429 31.372C35.4429 31.6902 35.7008 31.9482 36.0191 31.9482Z" fill="#5B6770"/>
<path d="M29.2523 25.1785C29.5706 25.1785 29.8285 24.9205 29.8285 24.6023C29.8285 24.2841 29.5706 24.0261 29.2523 24.0261C28.9341 24.0261 28.6761 24.2841 28.6761 24.6023C28.6761 24.9205 28.9341 25.1785 29.2523 25.1785Z" fill="#5B6770"/>
<path d="M29.2524 28.5657C29.4872 28.5656 29.6984 28.4231 29.7863 28.2054C29.8743 27.9878 29.8214 27.7385 29.6526 27.5753C29.4839 27.4121 29.233 27.3677 29.0184 27.4629C28.8038 27.5581 28.6685 27.774 28.6762 28.0086C28.6865 28.3193 28.9415 28.5659 29.2524 28.5657Z" fill="#5B6770"/>
<path d="M29.2523 31.9482C29.5706 31.9482 29.8285 31.6902 29.8285 31.372C29.8285 31.0538 29.5706 30.7958 29.2523 30.7958C28.9341 30.7958 28.6761 31.0538 28.6761 31.372C28.6761 31.6902 28.9341 31.9482 29.2523 31.9482Z" fill="#5B6770"/>
<path d="M32.6381 36.627C32.3251 36.627 32.0714 36.8807 32.0714 37.1936V37.2222C32.0982 37.5138 32.3428 37.737 32.6357 37.737C32.9286 37.737 33.1732 37.5138 33.2 37.2222V37.1936C33.2013 37.0438 33.1426 36.8996 33.0371 36.7932C32.9316 36.6868 32.7879 36.6269 32.6381 36.627V36.627Z" fill="#5B6770"/>
<path d="M20.162 36.9978C20.638 36.9978 21.0239 36.6119 21.0239 36.1359V36.1073C21.0239 35.6313 20.638 35.2454 20.162 35.2454C19.6859 35.2454 19.3 35.6313 19.3 36.1073V36.1549C19.3104 36.6235 19.6933 36.9979 20.162 36.9978Z" fill="#5B6770"/>
<path d="M23.4857 15.7892C23.1675 15.7892 22.9095 16.0471 22.9095 16.3653C22.9095 16.6836 23.1675 16.9415 23.4857 16.9415C23.804 16.9415 24.0619 16.6836 24.0619 16.3653C24.0619 16.0471 23.804 15.7892 23.4857 15.7892Z" fill="#5B6770"/>
<path d="M26.8714 15.7892C26.5531 15.7892 26.2952 16.0471 26.2952 16.3653C26.2952 16.6836 26.5531 16.9415 26.8714 16.9415C27.1896 16.9415 27.4475 16.6836 27.4475 16.3653C27.4475 16.0471 27.1896 15.7892 26.8714 15.7892Z" fill="#5B6770"/>
<path d="M23.4857 19.1716C23.1675 19.1716 22.9095 19.4296 22.9095 19.7478C22.9095 20.066 23.1675 20.324 23.4857 20.324C23.804 20.324 24.0619 20.066 24.0619 19.7478C24.0619 19.4296 23.804 19.1716 23.4857 19.1716Z" fill="#5B6770"/>
<path d="M25.1904 17.4804C24.8722 17.4804 24.6143 17.7384 24.6143 18.0566C24.6143 18.3748 24.8722 18.6328 25.1904 18.6328C25.5087 18.6328 25.7666 18.3748 25.7666 18.0566C25.764 17.7395 25.5076 17.483 25.1904 17.4804V17.4804Z" fill="#5B6770"/>
<path d="M21.7953 17.4804C21.4771 17.4804 21.2191 17.7384 21.2191 18.0566C21.2191 18.3748 21.4771 18.6328 21.7953 18.6328C22.1135 18.6328 22.3715 18.3748 22.3715 18.0566C22.3715 17.7384 22.1135 17.4804 21.7953 17.4804Z" fill="#5B6770"/>
<path d="M25.1905 20.8628C24.9551 20.8609 24.7418 21.0012 24.6504 21.2181C24.5589 21.4351 24.6075 21.6857 24.7732 21.8528C24.939 22.02 25.1892 22.0706 25.4069 21.9809C25.6246 21.8913 25.7666 21.6792 25.7667 21.4438C25.7667 21.1248 25.5095 20.8654 25.1905 20.8628Z" fill="#5B6770"/>
<path d="M21.7952 20.8628C21.5598 20.8609 21.3465 21.0012 21.2551 21.2181C21.1637 21.4351 21.2122 21.6857 21.378 21.8528C21.5437 22.02 21.794 22.0706 22.0116 21.9809C22.2293 21.8913 22.3714 21.6792 22.3714 21.4438C22.3714 21.1248 22.1142 20.8654 21.7952 20.8628Z" fill="#5B6770"/>
<path d="M23.4857 22.5588C23.1675 22.5588 22.9095 22.8168 22.9095 23.135C22.9095 23.4532 23.1675 23.7112 23.4857 23.7112C23.804 23.7112 24.0619 23.4532 24.0619 23.135C24.0619 22.8168 23.804 22.5588 23.4857 22.5588Z" fill="#5B6770"/>
<path d="M23.4857 25.9413C23.1675 25.9413 22.9095 26.1992 22.9095 26.5174C22.9095 26.8357 23.1675 27.0936 23.4857 27.0936C23.804 27.0936 24.0619 26.8357 24.0619 26.5174C24.0619 26.1992 23.804 25.9413 23.4857 25.9413V25.9413Z" fill="#5B6770"/>
<path d="M25.1904 24.2501C24.8722 24.2501 24.6143 24.508 24.6143 24.8263C24.6143 25.1445 24.8722 25.4024 25.1904 25.4024C25.5087 25.4024 25.7666 25.1445 25.7666 24.8263C25.764 24.5091 25.5076 24.2527 25.1904 24.2501Z" fill="#5B6770"/>
<path d="M21.7953 24.2501C21.4771 24.2501 21.2191 24.508 21.2191 24.8263C21.2191 25.1445 21.4771 25.4024 21.7953 25.4024C22.1135 25.4024 22.3715 25.1445 22.3715 24.8263C22.3715 24.508 22.1135 24.2501 21.7953 24.2501Z" fill="#5B6770"/>
<path d="M25.1904 27.6373C24.8722 27.6373 24.6143 27.8952 24.6143 28.2135C24.6143 28.5317 24.8722 28.7896 25.1904 28.7896C25.5087 28.7896 25.7666 28.5317 25.7666 28.2135C25.764 27.8963 25.5076 27.6399 25.1904 27.6373V27.6373Z" fill="#5B6770"/>
<path d="M21.7953 27.6373C21.4771 27.6373 21.2191 27.8952 21.2191 28.2135C21.2191 28.5317 21.4771 28.7896 21.7953 28.7896C22.1135 28.7896 22.3715 28.5317 22.3715 28.2135C22.3715 27.8952 22.1135 27.6373 21.7953 27.6373Z" fill="#5B6770"/>
<path d="M23.4858 29.3285C23.1688 29.3285 22.9114 29.5846 22.9097 29.9016C22.908 30.2185 23.1626 30.4774 23.4795 30.4808C23.7965 30.4843 24.0567 30.2311 24.062 29.9142C24.0645 29.7597 24.0049 29.6107 23.8966 29.5006C23.7883 29.3905 23.6403 29.3285 23.4858 29.3285V29.3285Z" fill="#5B6770"/>
<path d="M16.719 15.7892C16.4008 15.7892 16.1428 16.0471 16.1428 16.3653C16.1428 16.6836 16.4008 16.9415 16.719 16.9415C17.0372 16.9415 17.2952 16.6836 17.2952 16.3653C17.2952 16.2125 17.2345 16.066 17.1264 15.9579C17.0184 15.8499 16.8718 15.7892 16.719 15.7892Z" fill="#5B6770"/>
<path d="M20.1048 15.7892C19.7865 15.7892 19.5286 16.0471 19.5286 16.3653C19.5286 16.6836 19.7865 16.9415 20.1048 16.9415C20.423 16.9415 20.6809 16.6836 20.6809 16.3653C20.6809 16.0471 20.423 15.7892 20.1048 15.7892Z" fill="#5B6770"/>
<path d="M16.719 19.1716C16.4008 19.1716 16.1428 19.4296 16.1428 19.7478C16.1428 20.066 16.4008 20.324 16.719 20.324C17.0372 20.324 17.2952 20.066 17.2952 19.7478C17.2952 19.595 17.2345 19.4484 17.1264 19.3404C17.0184 19.2323 16.8718 19.1716 16.719 19.1716Z" fill="#5B6770"/>
<path d="M20.1048 19.1716C19.7865 19.1716 19.5286 19.4296 19.5286 19.7478C19.5286 20.066 19.7865 20.324 20.1048 20.324C20.423 20.324 20.6809 20.066 20.6809 19.7478C20.6809 19.4296 20.423 19.1716 20.1048 19.1716Z" fill="#5B6770"/>
<path d="M18.4096 17.4804C18.0933 17.4882 17.8425 17.7496 17.8477 18.0659C17.8529 18.3822 18.1122 18.6351 18.4285 18.6326C18.7448 18.63 18.9999 18.3729 19 18.0566C19.0001 17.9013 18.9374 17.7525 18.8263 17.644C18.7151 17.5356 18.5648 17.4766 18.4096 17.4804Z" fill="#5B6770"/>
<path d="M15.0286 17.4804C14.7104 17.4804 14.4524 17.7384 14.4524 18.0566C14.4524 18.3748 14.7104 18.6328 15.0286 18.6328C15.3468 18.6328 15.6048 18.3748 15.6048 18.0566C15.6048 17.7384 15.3468 17.4804 15.0286 17.4804Z" fill="#5B6770"/>
<path d="M18.4096 20.8628C18.09 20.868 17.8347 21.1304 17.8382 21.45C17.8416 21.7696 18.1026 22.0263 18.4222 22.0246C18.7418 22.0229 19 21.7634 19 21.4438C19.0001 21.288 18.9375 21.1388 18.8265 21.0296C18.7155 20.9203 18.5653 20.8603 18.4096 20.8628Z" fill="#5B6770"/>
<path d="M15.0286 20.8628C14.7932 20.8609 14.5799 21.0012 14.4885 21.2181C14.3971 21.4351 14.4456 21.6857 14.6114 21.8528C14.7771 22.02 15.0274 22.0706 15.245 21.9809C15.4627 21.8913 15.6048 21.6792 15.6048 21.4438C15.6048 21.1248 15.3476 20.8654 15.0286 20.8628Z" fill="#5B6770"/>
<path d="M16.719 22.5588C16.4008 22.5588 16.1428 22.8168 16.1428 23.135C16.1428 23.4532 16.4008 23.7112 16.719 23.7112C17.0372 23.7112 17.2952 23.4532 17.2952 23.135C17.2952 22.9822 17.2345 22.8356 17.1264 22.7276C17.0184 22.6195 16.8718 22.5588 16.719 22.5588Z" fill="#5B6770"/>
<path d="M20.1048 22.5588C19.7865 22.5588 19.5286 22.8168 19.5286 23.135C19.5286 23.4532 19.7865 23.7112 20.1048 23.7112C20.423 23.7112 20.6809 23.4532 20.6809 23.135C20.6809 22.8168 20.423 22.5588 20.1048 22.5588Z" fill="#5B6770"/>
<path d="M16.719 25.9413C16.4008 25.9413 16.1428 26.1992 16.1428 26.5174C16.1428 26.8357 16.4008 27.0936 16.719 27.0936C17.0372 27.0936 17.2952 26.8357 17.2952 26.5174C17.2952 26.3646 17.2345 26.2181 17.1264 26.11C17.0184 26.002 16.8718 25.9413 16.719 25.9413V25.9413Z" fill="#5B6770"/>
<path d="M20.1048 25.9413C19.7865 25.9413 19.5286 26.1992 19.5286 26.5174C19.5286 26.8357 19.7865 27.0936 20.1048 27.0936C20.423 27.0936 20.6809 26.8357 20.6809 26.5174C20.6809 26.1992 20.423 25.9413 20.1048 25.9413V25.9413Z" fill="#5B6770"/>
<path d="M18.4096 24.2501C18.0933 24.2579 17.8425 24.5192 17.8477 24.8355C17.8529 25.1518 18.1122 25.4048 18.4285 25.4022C18.7448 25.3997 18.9999 25.1426 19 24.8262C19.0001 24.6709 18.9374 24.5222 18.8263 24.4137C18.7151 24.3052 18.5648 24.2462 18.4096 24.2501Z" fill="#5B6770"/>
<path d="M15.0286 24.2501C14.7104 24.2501 14.4524 24.508 14.4524 24.8263C14.4524 25.1445 14.7104 25.4024 15.0286 25.4024C15.3468 25.4024 15.6048 25.1445 15.6048 24.8263C15.6048 24.508 15.3468 24.2501 15.0286 24.2501Z" fill="#5B6770"/>
<path d="M18.4096 27.6373C18.0933 27.6451 17.8425 27.9064 17.8477 28.2227C17.8529 28.539 18.1122 28.792 18.4285 28.7894C18.7448 28.7869 18.9999 28.5298 19 28.2135C19.0001 28.0581 18.9374 27.9094 18.8263 27.8009C18.7151 27.6924 18.5648 27.6334 18.4096 27.6373Z" fill="#5B6770"/>
<path d="M15.0286 27.6373C14.7104 27.6373 14.4524 27.8952 14.4524 28.2135C14.4524 28.5317 14.7104 28.7896 15.0286 28.7896C15.3468 28.7896 15.6048 28.5317 15.6048 28.2135C15.6048 27.8952 15.3468 27.6373 15.0286 27.6373Z" fill="#5B6770"/>
<path d="M16.7191 29.3285C16.4021 29.3285 16.1447 29.5846 16.143 29.9016C16.1412 30.2185 16.3959 30.4774 16.7128 30.4808C17.0298 30.4843 17.29 30.2311 17.2952 29.9142C17.2978 29.7597 17.2382 29.6107 17.1299 29.5006C17.0216 29.3905 16.8735 29.3285 16.7191 29.3285V29.3285Z" fill="#5B6770"/>
<path d="M20.1047 29.3285C19.7877 29.3285 19.5303 29.5846 19.5286 29.9016C19.5269 30.2185 19.7815 30.4774 20.0984 30.4808C20.4154 30.4843 20.6756 30.2311 20.6809 29.9142C20.6834 29.7597 20.6238 29.6107 20.5155 29.5006C20.4072 29.3905 20.2592 29.3285 20.1047 29.3285V29.3285Z" fill="#5B6770"/>
<path d="M13.3334 15.7892C13.1004 15.7892 12.8903 15.9295 12.8011 16.1448C12.7119 16.3602 12.7612 16.608 12.926 16.7728C13.0908 16.9376 13.3386 16.9869 13.5539 16.8977C13.7692 16.8085 13.9096 16.5984 13.9096 16.3653C13.9096 16.0471 13.6516 15.7892 13.3334 15.7892Z" fill="#5B6770"/>
<path d="M13.3334 19.1716C13.1004 19.1716 12.8903 19.312 12.8011 19.5273C12.7119 19.7426 12.7612 19.9905 12.926 20.1552C13.0908 20.32 13.3386 20.3693 13.5539 20.2802C13.7692 20.191 13.9096 19.9809 13.9096 19.7478C13.9096 19.4296 13.6516 19.1716 13.3334 19.1716Z" fill="#5B6770"/>
<path d="M13.3334 22.5588C13.1004 22.5588 12.8903 22.6992 12.8011 22.9145C12.7119 23.1298 12.7612 23.3776 12.926 23.5424C13.0908 23.7072 13.3386 23.7565 13.5539 23.6673C13.7692 23.5781 13.9096 23.368 13.9096 23.135C13.9096 22.8168 13.6516 22.5588 13.3334 22.5588Z" fill="#5B6770"/>
<path d="M13.3334 25.9413C13.0152 25.9413 12.7572 26.1992 12.7572 26.5174C12.7572 26.8357 13.0152 27.0936 13.3334 27.0936C13.5392 27.0936 13.7295 26.9838 13.8324 26.8055C13.9353 26.6273 13.9353 26.4076 13.8324 26.2293C13.7295 26.0511 13.5392 25.9413 13.3334 25.9413V25.9413Z" fill="#5B6770"/>
<path d="M13.3333 29.3285C13.0163 29.3285 12.7589 29.5846 12.7572 29.9016C12.7555 30.2185 13.0101 30.4774 13.3271 30.4808C13.644 30.4843 13.9043 30.2311 13.9095 29.9142C13.9121 29.7597 13.8525 29.6107 13.7441 29.5006C13.6358 29.3905 13.4878 29.3285 13.3333 29.3285V29.3285Z" fill="#5B6770"/>
<path fill-rule="evenodd" clip-rule="evenodd" d="M36.7048 18.5428H31.3238V11.0918C31.3212 9.38535 29.9391 8.00262 28.2333 8H12.0905C10.3847 8.00262 9.00262 9.38535 9 11.0918V36.9128C9.00263 38.6185 10.3855 39.9999 12.0905 39.9999H28.2333H28.4571H28.5667H36.7048C37.3105 40.0062 37.8936 39.7703 38.3246 39.3444C38.7556 38.9186 38.9988 38.3382 39 37.7322V20.8104C38.9988 20.2044 38.7556 19.624 38.3246 19.1982C37.8936 18.7724 37.3105 18.5364 36.7048 18.5428ZM26.8714 19.171C26.5532 19.171 26.2952 19.4291 26.2952 19.7474C26.2972 19.8746 26.3425 19.9973 26.4238 20.0952C26.3427 20.3249 26.2993 20.5662 26.2952 20.8098V32.11H12.3C11.9055 32.11 11.5857 32.43 11.5857 32.8246C11.5857 33.2193 11.9055 33.5392 12.3 33.5392H26.2952V37.7316C26.2962 38.0192 26.3528 38.3039 26.4619 38.57H12.0905C11.6502 38.5713 11.2274 38.3972 10.9156 38.0861C10.6038 37.7751 10.4286 37.3527 10.4286 36.9122V11.0912C10.4286 10.173 11.1726 9.42857 12.0905 9.42857H28.2333C28.6741 9.42857 29.0968 9.60374 29.4085 9.91555C29.7201 10.2274 29.8952 10.6503 29.8952 11.0912V18.5421H28.5667C27.9713 18.5418 27.3998 18.7763 26.9762 19.1948C26.9426 19.1819 26.9073 19.1739 26.8714 19.171ZM36.7285 38.5706C37.1922 38.5707 37.5688 38.196 37.5714 37.7322V20.8104C37.5702 20.5834 37.4776 20.3665 37.3144 20.2087C37.1513 20.0509 36.9315 19.9655 36.7047 19.9719H28.5666C28.103 19.9719 27.7264 20.3466 27.7238 20.8104V37.7465C27.7249 38.147 28.0075 38.4915 28.3999 38.5706C28.4554 38.5755 28.5112 38.5755 28.5666 38.5706H36.7285Z" fill="#5B6770"/>
<path d="M28.0476 14.1449H12.3333C11.9388 14.1449 11.619 13.8251 11.619 13.4307C11.619 13.0362 11.9388 12.7164 12.3333 12.7164H28.0476C28.4421 12.7164 28.7619 13.0362 28.7619 13.4307C28.7619 13.8251 28.4421 14.1449 28.0476 14.1449Z" fill="#5B6770"/>
</svg>
