<svg width="24" height="24" viewBox="0 0 24 24" fill="none" xmlns="http://www.w3.org/2000/svg">
    <path fill-rule="evenodd" clip-rule="evenodd" d="M16.9577 0C17.5567 0 18.0423 0.476052 18.0423 1.06329V2.43038H19.4366C21.4046 2.43038 23 3.99455 23 5.92405V10.7848V20.5063C23 22.4358 21.4046 24 19.4366 24H4.56338C2.59538 24 1 22.4358 1 20.5063V10.7848V5.92405C1 3.99455 2.59538 2.43038 4.56338 2.43038H5.95775V1.06329C5.95775 0.476052 6.4433 0 7.04225 0C7.64121 0 8.12676 0.476052 8.12676 1.06329V2.43038H15.8732V1.06329C15.8732 0.476052 16.3588 0 16.9577 0ZM20.831 5.92405V9.72152H3.16901V5.92405C3.16901 5.16903 3.79329 4.55696 4.56338 4.55696H5.95775V5.92405C5.95775 6.51129 6.4433 6.98734 7.04225 6.98734C7.64121 6.98734 8.12676 6.51129 8.12676 5.92405V4.55696H15.8732V5.92405C15.8732 6.51129 16.3588 6.98734 16.9577 6.98734C17.5567 6.98734 18.0423 6.51129 18.0423 5.92405V4.55696H19.4366C20.2067 4.55696 20.831 5.16903 20.831 5.92405ZM20.831 11.8481H3.16901V20.5063C3.16901 21.2614 3.79329 21.8734 4.56338 21.8734H19.4366C20.2067 21.8734 20.831 21.2614 20.831 20.5063V11.8481ZM7.04225 14.5823C6.4433 14.5823 5.95775 15.0583 5.95775 15.6456V18.0759C5.95775 18.6632 6.4433 19.1392 7.04225 19.1392H9.52113C10.1201 19.1392 10.6056 18.6632 10.6056 18.0759V15.6456C10.6056 15.0583 10.1201 14.5823 9.52113 14.5823H7.04225ZM8.12676 17.0127V16.7089H8.43662V17.0127H8.12676Z" fill="#5B6770"/>
</svg>
