<svg width="24" height="24" viewBox="0 0 24 24" fill="none" xmlns="http://www.w3.org/2000/svg">
<path fill-rule="evenodd" clip-rule="evenodd" d="M21.6745 3.89679C22.1084 3.46287 22.1084 2.75935 21.6745 2.32544C21.2406 1.89152 20.5371 1.89152 20.1032 2.32544L12 10.4287L3.89678 2.32544C3.46287 1.89152 2.75935 1.89152 2.32544 2.32544C1.89152 2.75935 1.89152 3.46287 2.32544 3.89679L10.4286 12L2.32544 20.1032C1.89152 20.5372 1.89152 21.2407 2.32544 21.6746C2.75935 22.1085 3.46287 22.1085 3.89678 21.6746L12 13.5714L20.1032 21.6746C20.5371 22.1085 21.2406 22.1085 21.6745 21.6746C22.1084 21.2407 22.1084 20.5372 21.6745 20.1032L13.5713 12L21.6745 3.89679Z" fill="#5B6770"/>
</svg>
