<svg width="24" height="24" viewBox="0 0 24 24" fill="none" xmlns="http://www.w3.org/2000/svg">
<path fill-rule="evenodd" clip-rule="evenodd" d="M0 3.11111C0 2.49746 0.460507 2 1.02857 2H22.9714C23.5395 2 24 2.49746 24 3.11111C24 3.72476 23.5395 4.22222 22.9714 4.22222H1.02857C0.460507 4.22222 0 3.72476 0 3.11111ZM0 12C0 11.3864 0.460507 10.8889 1.02857 10.8889H22.9714C23.5395 10.8889 24 11.3864 24 12C24 12.6137 23.5395 13.1111 22.9714 13.1111H1.02857C0.460507 13.1111 0 12.6137 0 12ZM1.02857 19.7778C0.460507 19.7778 0 20.2752 0 20.8889C0 21.5025 0.460507 22 1.02857 22H22.9714C23.5395 22 24 21.5025 24 20.8889C24 20.2752 23.5395 19.7778 22.9714 19.7778H1.02857Z" fill="#5B6770"/>
</svg>
