<svg width="24" height="24" viewBox="0 0 24 24" fill="none" xmlns="http://www.w3.org/2000/svg">
    <path fill-rule="evenodd" clip-rule="evenodd" d="M2.67708 23H21.351C21.7863 22.9969 22.2141 22.8842 22.5973 22.6719C22.9806 22.4595 23.3074 22.1539 23.5495 21.7817C23.7915 21.4096 23.9414 20.9821 23.986 20.5367C24.0306 20.0913 23.9685 19.6414 23.8053 19.2262L14.3349 2.41585C14.1042 1.98688 13.7661 1.6293 13.3556 1.38031C12.9451 1.13132 12.4772 1 12.0007 1C11.5242 1 11.0563 1.13132 10.6458 1.38031C10.2353 1.6293 9.89716 1.98688 9.66646 2.41585L0.196111 19.2262C0.0359706 19.6319 -0.0275318 20.071 0.0109058 20.507C0.0493434 20.943 0.188605 21.3632 0.417066 21.7326C0.645526 22.1019 0.956554 22.4097 1.32419 22.6302C1.69182 22.8507 2.10538 22.9775 2.53035 23H2.67708ZM10.8 9.55556C10.8 8.88054 11.3373 8.33333 12 8.33333C12.6627 8.33333 13.2 8.88054 13.2 9.55556V12C13.2 12.675 12.6627 13.2222 12 13.2222C11.3373 13.2222 10.8 12.675 10.8 12V9.55556ZM12 18.1111C12.6627 18.1111 13.2 17.5639 13.2 16.8889C13.2 16.2139 12.6627 15.6667 12 15.6667C11.3373 15.6667 10.8 16.2139 10.8 16.8889C10.8 17.5639 11.3373 18.1111 12 18.1111Z" fill="#5B6770"/>
</svg>
