<svg width="59" height="58" viewBox="0 0 59 58" fill="none" xmlns="http://www.w3.org/2000/svg">
<path fill-rule="evenodd" clip-rule="evenodd" d="M17.867 45.5515L18.1038 45.2478C18.0482 45.1732 17.9609 45.0608 17.8171 44.9476C17.3646 44.5911 16.9132 44.6821 16.5433 45.1569C16.2072 45.5884 16.2305 46.0973 16.6182 46.4025C16.7483 46.505 16.8971 46.6002 16.9782 46.6422L17.2553 46.3087L17.5262 46.5224L17.1118 47.032C16.958 46.9767 16.6761 46.8334 16.4512 46.6563C15.7708 46.1204 15.7781 45.4431 16.1988 44.9032C16.6595 44.3117 17.3744 44.2136 18.0059 44.7109C18.2445 44.8988 18.4291 45.1274 18.5164 45.2793L18.1382 45.7651L17.867 45.5515Z" fill="#DD0031"/>
<path fill-rule="evenodd" clip-rule="evenodd" d="M19.4513 48.2379L19.661 48.3572L20.0462 47.6853L19.0725 47.1313L18.6876 47.8031L18.9122 47.931L18.774 48.1773L18.0013 47.7373L18.1395 47.4912L18.349 47.6106L19.2641 46.0085L19.0424 45.8825L19.1806 45.6364L19.9533 46.0761L19.8153 46.3224L19.6026 46.2013L19.2209 46.8671L20.1944 47.4212L20.5761 46.7553L20.3543 46.6291L20.4926 46.383L21.2655 46.8229L21.1271 47.069L20.9145 46.9479L19.9995 48.55L20.2242 48.6778L20.086 48.9239L19.3132 48.484L19.4513 48.2379Z" fill="#DD0031"/>
<path fill-rule="evenodd" clip-rule="evenodd" d="M21.1744 49.0929L21.4002 49.1873L22.1141 47.4838L21.8757 47.3844L21.9828 47.1231L22.8032 47.4655L22.6959 47.7269L22.4701 47.6327L21.7561 49.336L21.9948 49.4355L21.8875 49.6969L21.0671 49.3543L21.1744 49.0929Z" fill="#DD0031"/>
<path fill-rule="evenodd" clip-rule="evenodd" d="M24.9872 48.9135L25.092 48.542C25.0125 48.4939 24.8895 48.4227 24.7143 48.3721C24.162 48.213 23.7789 48.4684 23.6152 49.049C23.4665 49.5765 23.6791 50.0397 24.1522 50.1761C24.3109 50.2219 24.4842 50.2539 24.575 50.262L24.706 49.8478L25.0368 49.9432L24.8451 50.5731C24.6822 50.5799 24.3676 50.5539 24.0931 50.4747C23.2628 50.2353 23.0152 49.6044 23.2014 48.944C23.4052 48.2208 24.0294 47.8589 24.7999 48.0811C25.0911 48.1649 25.3476 48.3071 25.4854 48.4151L25.318 49.0089L24.9872 48.9135Z" fill="#DD0031"/>
<path fill-rule="evenodd" clip-rule="evenodd" d="M25.9602 50.5996L26.1955 50.6318L26.4504 48.7992L26.2017 48.7651L26.2384 48.4844L27.1148 48.6045L27.0778 48.8851L26.8359 48.852L26.7185 49.6896L27.7733 48.9804L27.5109 48.9444L27.5476 48.6637L28.4408 48.7861L28.404 49.0668L28.2131 49.0407L27.1176 49.7685L27.9988 50.8788L28.1966 50.9058L28.1597 51.1866L27.2051 51.0557L27.2422 50.7751L27.4909 50.8092L26.702 49.8161L26.5806 50.6846L26.8363 50.7196L26.7995 51L25.9232 50.8802L25.9602 50.5996Z" fill="#DD0031"/>
<path fill-rule="evenodd" clip-rule="evenodd" d="M29.1315 50.9459L29.3722 50.9451L29.3729 49.0938L29.0946 49.0945L29.0924 48.8113L30.7843 48.8068L30.8027 49.4421L30.4828 49.443L30.4597 49.0908L29.7616 49.0926L29.7598 49.8388L30.4476 49.8369L30.4498 50.1407L29.762 50.1429L29.7607 50.9441L30.4932 50.9421L30.518 50.5483L30.8411 50.5475L30.8183 51.2244L29.1333 51.2291L29.1315 50.9459Z" fill="#DD0031"/>
<mask id="mask0_1008_8357" style="mask-type:alpha" maskUnits="userSpaceOnUse" x="31" y="46" width="8" height="7">
<path d="M31.0723 48.9731L37.5193 46.3778L38.7461 49.4253L32.2991 52.0206L31.0723 48.9731Z" fill="white"/>
</mask>
<g mask="url(#mask0_1008_8357)">
<path fill-rule="evenodd" clip-rule="evenodd" d="M31.9134 50.8884L32.1445 50.8538L31.8793 49.021L31.5802 49.0657L31.5377 48.7858L32.1629 48.6923L33.4841 49.9724C33.5701 50.0573 33.6959 50.1993 33.7766 50.2954L33.7833 50.2946L33.5378 48.7732L33.2728 48.8128L33.2301 48.5326L34.0593 48.4086L34.102 48.6888L33.8709 48.7234L34.1787 50.8363L33.8695 50.8824L32.4439 49.5097C32.3623 49.4309 32.2832 49.3448 32.2387 49.2816L32.2331 49.2895L32.4776 50.804L32.7392 50.765L32.782 51.045L31.956 51.1684L31.9134 50.8884Z" fill="#DD0031"/>
<path fill-rule="evenodd" clip-rule="evenodd" d="M37.2245 49.2625L37.3397 49.5625C37.4207 49.5721 37.5984 49.5558 37.778 49.487C38.0635 49.3775 38.2032 49.176 38.1102 48.934C38.0408 48.7533 37.9047 48.724 37.6381 48.7485L37.1972 48.7881C36.9121 48.8123 36.6229 48.7492 36.4844 48.388C36.3136 47.9426 36.6059 47.5826 37.0774 47.4019C37.3691 47.2898 37.6108 47.2675 37.7992 47.2509L37.9913 47.7509L37.6512 47.8814L37.5472 47.6101C37.4917 47.6094 37.3625 47.6181 37.1895 47.6846C36.856 47.8124 36.7761 48.0169 36.8431 48.1912C36.9186 48.3879 37.0888 48.4005 37.3107 48.3745L37.6917 48.332C37.9743 48.3016 38.3142 48.3341 38.4664 48.7309C38.6386 49.1794 38.4097 49.5706 37.8772 49.7747C37.7136 49.8373 37.2999 49.9478 37.0747 49.9454L36.8655 49.4002L37.2245 49.2625Z" fill="#DD0031"/>
</g>
<path fill-rule="evenodd" clip-rule="evenodd" d="M39.8891 46.6992C39.8034 46.6245 39.7609 46.5772 39.7262 46.5371L39.7203 46.5406C39.7352 46.5878 39.7557 46.6516 39.7726 46.7652L39.8797 47.4918L40.4325 47.1776L39.8891 46.6992ZM39.5223 48.7368L39.7016 48.6348L39.4078 46.3444L39.7783 46.1338L41.5332 47.594L41.7185 47.4886L41.858 47.7353L41.0931 48.17L40.9536 47.9234L41.1448 47.8147L40.669 47.3931L39.9341 47.8108L40.0362 48.4448L40.2514 48.3223L40.391 48.5691L39.6619 48.9835L39.5223 48.7368Z" fill="#DD0031"/>
<path fill-rule="evenodd" clip-rule="evenodd" d="M42.5058 46.951L42.6881 46.8049L41.5451 45.3486L41.3094 45.5378L41.1327 45.3163L41.6259 44.9207L43.4046 45.3666C43.5212 45.397 43.7006 45.4568 43.8182 45.4996L43.8236 45.4953L42.8531 44.2993L42.6441 44.467L42.4674 44.2455L43.1215 43.7209L43.2978 43.9424L43.1156 44.0885L44.435 45.7664L44.191 45.962L42.2761 45.4884C42.1664 45.4612 42.0552 45.4264 41.9854 45.3938L41.9844 45.4035L42.9506 46.5943L43.157 46.4286L43.3334 46.6501L42.6822 47.1727L42.5058 46.951Z" fill="#DD0031"/>
<path fill-rule="evenodd" clip-rule="evenodd" d="M45.8531 43.9454C46.2462 43.5087 46.2015 43.0221 45.7549 42.616C45.3541 42.2514 44.8919 42.2493 44.4964 42.6886L44.2364 42.9772L45.5955 44.2314L45.8531 43.9454ZM45.1744 44.6988L45.3379 44.5175L43.9788 43.2632L43.8062 43.4548L43.597 43.2645L44.3605 42.4165C44.8781 41.842 45.509 41.8165 46.0273 42.2877C46.5557 42.768 46.6602 43.4718 46.1451 44.0439L45.3838 44.8893L45.1744 44.6988Z" fill="#DD0031"/>
<path fill-rule="evenodd" clip-rule="evenodd" d="M45.5041 41.1769L45.9781 40.4096L46.2178 40.5598L46.0912 40.7646L47.6829 41.1476C47.7676 41.1681 47.8497 41.1992 47.9324 41.2227L47.9362 41.2168C47.8787 41.1524 47.8099 41.0931 47.7589 41.0247L46.9952 40.0431L46.5959 39.9475L46.4729 40.1467L46.2332 39.9967L46.6964 39.2469L46.9361 39.3969L46.8096 39.602L48.3496 40.0095C48.4401 40.0336 48.534 40.072 48.6238 40.1039L48.6273 40.0981C48.5628 40.0252 48.4919 39.9565 48.4293 39.8806L47.4121 38.6268L47.2728 38.8522L47.0331 38.7022L47.4853 37.97L47.725 38.1202L47.6147 38.2987L49 40.1119L48.7757 40.4751L47.4738 40.1476L47.47 40.1535L48.3014 41.2425L48.0771 41.6056L45.8559 41.1454L45.7438 41.327L45.5041 41.1769Z" fill="#DD0031"/>
<path fill-rule="evenodd" clip-rule="evenodd" d="M49.6378 38.2043L49.7339 37.9794L48.0457 37.2303L47.9442 37.4681L47.6851 37.3554L48.0344 36.538L48.2935 36.6506L48.1974 36.8756L49.8856 37.6246L49.9872 37.3872L50.2464 37.4995L49.8969 38.3171L49.6378 38.2043Z" fill="#DD0031"/>
<path fill-rule="evenodd" clip-rule="evenodd" d="M49.4962 34.3714L49.1269 34.2593C49.0784 34.3383 49.0062 34.4606 48.9541 34.6359C48.7902 35.188 49.0408 35.5776 49.6176 35.7526C50.1416 35.9116 50.6049 35.7064 50.7453 35.2336C50.7926 35.0749 50.826 34.9012 50.8351 34.8103L50.4239 34.6711L50.5221 34.3404L51.1475 34.5447C51.1529 34.7084 51.1239 35.0241 51.0424 35.2986C50.7957 36.1282 50.1649 36.3657 49.5089 36.1665C48.7905 35.9485 48.4362 35.3148 48.665 34.5445C48.7513 34.2535 48.8955 33.9981 49.0043 33.8619L49.5941 34.0408L49.4962 34.3714Z" fill="#DD0031"/>
<path fill-rule="evenodd" clip-rule="evenodd" d="M51.4044 31.922L51.438 31.6826L50.6728 31.5645L50.5171 32.6753L51.2824 32.7936L51.3183 32.5374L51.5976 32.5778L51.4739 33.4599L51.1947 33.4193L51.2283 33.1799L49.4049 32.9007L49.3695 33.1538L49.0902 33.1131L49.2137 32.2312L49.4929 32.2717L49.459 32.5144L50.2175 32.6318L50.3731 31.5207L49.6146 31.4036L49.5792 31.6565L49.3 31.6158L49.4234 30.7339L49.7026 30.7747L49.6687 31.0174L51.4921 31.2964L51.5279 31.0401L51.8073 31.0807L51.6837 31.9627L51.4044 31.922Z" fill="#DD0031"/>
<path fill-rule="evenodd" clip-rule="evenodd" d="M9.95793 29.2362L9.95172 28.9946L9.17839 29.0043L9.20708 30.1259L9.9802 30.1163L9.97373 29.8574L10.2554 29.8514L10.278 30.7419L9.99633 30.7479L9.99019 30.5063L8.14822 30.5319L8.15482 30.7873L7.87291 30.7934L7.85031 29.9029L8.13196 29.8969L8.13827 30.142L8.90461 30.1324L8.87613 29.0107L8.10978 29.0202L8.11617 29.2757L7.83451 29.2817L7.81187 28.3912L8.09353 28.3852L8.09987 28.6303L9.94181 28.6046L9.93509 28.3458L10.217 28.3397L10.2396 29.2301L9.95793 29.2362Z" fill="#DD0031"/>
<path fill-rule="evenodd" clip-rule="evenodd" d="M10.1314 26.4315C10.2151 25.7989 9.61934 25.6092 9.29588 25.5647C8.87002 25.5062 8.38439 25.5857 8.30982 26.1497C8.25712 26.5498 8.48196 26.9463 9.14621 27.0376C9.60936 27.1013 10.065 26.9341 10.1314 26.4315ZM7.99279 26.0819C8.08409 25.3911 8.59555 25.0368 9.33148 25.138C9.9614 25.2246 10.5565 25.6823 10.4497 26.4892C10.3575 27.1867 9.83954 27.5645 9.10725 27.4638C8.36128 27.3613 7.89533 26.8203 7.99279 26.0819Z" fill="#DD0031"/>
<path fill-rule="evenodd" clip-rule="evenodd" d="M10.4152 24.5441L10.4881 24.3103L8.73258 23.7376L8.65158 23.9976L8.38246 23.9121L8.61813 23.1548L10.5357 23.0335C10.6019 23.0293 10.6717 23.037 10.7392 23.0403L10.7412 23.0338C10.6841 22.9975 10.6225 22.9634 10.5705 22.9216L9.06534 21.719L9.28886 21.0013L9.55808 21.0869L9.47604 21.3503L11.2398 21.8967L11.3176 21.6464L11.5868 21.732L11.3254 22.5717L11.0562 22.4861L11.1269 22.2589L9.57837 21.7519L9.56855 21.7597C9.66118 21.8218 9.76001 21.8748 9.84617 21.9457L11.1859 23.0194L11.071 23.3882L9.42744 23.4989C9.29818 23.5085 9.17285 23.494 9.04446 23.4893L9.04228 23.496L10.5843 24.0008L10.6655 23.7406L10.9347 23.8262L10.6843 24.6297L10.4152 24.5441Z" fill="#DD0031"/>
<path fill-rule="evenodd" clip-rule="evenodd" d="M11.6386 20.978L11.745 20.7618L10.0993 19.9242L9.97621 20.1744L9.72339 20.0481L10.4713 18.5285L11.0444 18.7994L10.903 19.0866L10.5796 18.9482L10.2712 19.5751L10.9337 19.9139L11.2376 19.2961L11.5088 19.4316L11.2049 20.0494L11.9167 20.4128L12.2405 19.7549L11.9012 19.5546L12.0442 19.2642L12.6361 19.5907L11.8912 21.1043L11.6386 20.978Z" fill="#DD0031"/>
<path fill-rule="evenodd" clip-rule="evenodd" d="M14.3648 16.5212C14.7639 16.0254 14.3514 15.5523 14.0969 15.3455C13.7621 15.0732 13.3045 14.8874 12.9486 15.3297C12.6963 15.6434 12.6841 16.099 13.2063 16.5238C13.5706 16.8201 14.0477 16.9154 14.3648 16.5212ZM12.7119 15.1063C13.1477 14.5646 13.7699 14.5295 14.3484 15C14.8438 15.4029 15.117 16.1041 14.6079 16.7367C14.1678 17.2838 13.528 17.3355 12.9522 16.8671C12.3655 16.3902 12.2459 15.6854 12.7119 15.1063Z" fill="#DD0031"/>
<path fill-rule="evenodd" clip-rule="evenodd" d="M15.6544 15.0441L15.83 14.8797L14.5804 13.5145L14.3772 13.705L14.1845 13.4976L15.4184 12.3415L15.8609 12.7974L15.6277 13.0159L15.3729 12.7721L14.8639 13.2491L15.3664 13.8001L15.9132 13.2878L16.1201 13.5104L15.5732 14.0226L16.1134 14.614L16.3291 14.412L16.5218 14.6195L15.8471 15.2515L15.6544 15.0441Z" fill="#DD0031"/>
<path fill-rule="evenodd" clip-rule="evenodd" d="M19.0324 12.3093L19.2434 12.18L18.2911 10.5912L17.8134 10.8837L17.985 11.1918L17.6921 11.3711L17.373 10.8211L19.2336 9.6819L19.5763 10.2176L19.2834 10.397L19.0882 10.1032L18.6192 10.3903L19.5715 11.9792L19.809 11.8338L19.9565 12.0758L19.1798 12.5512L19.0324 12.3093Z" fill="#DD0031"/>
<path fill-rule="evenodd" clip-rule="evenodd" d="M22.3622 10.5872L22.5837 10.4937L22.2879 9.77464L21.2596 10.2085L21.5552 10.9277L21.7926 10.8275L21.9028 11.0887L21.0862 11.4332L20.9762 11.1721L21.1977 11.0786L20.4904 9.36649L20.2564 9.46527L20.1462 9.20428L20.9628 8.85968L21.0728 9.12077L20.8481 9.21562L21.1414 9.92837L22.1697 9.49437L21.8767 8.78153L21.6423 8.88043L21.5324 8.61932L22.3488 8.27482L22.459 8.53583L22.2343 8.63068L22.9414 10.3427L23.1788 10.2426L23.2888 10.5037L22.4724 10.8483L22.3622 10.5872Z" fill="#DD0031"/>
<path fill-rule="evenodd" clip-rule="evenodd" d="M23.9348 10.0105L24.1674 9.94939L23.7072 8.15442L23.4379 8.22526L23.3654 7.95114L25.0007 7.52136L25.1768 8.13285L24.8675 8.21411L24.7575 7.87845L24.0827 8.05577L24.267 8.77942L24.9317 8.60472L25.0095 8.89878L24.3446 9.07358L24.5431 9.8506L25.2511 9.66462L25.177 9.27658L25.4894 9.19454L25.6359 9.85662L24.0072 10.2845L23.9348 10.0105Z" fill="#DD0031"/>
<path fill-rule="evenodd" clip-rule="evenodd" d="M29.0773 9.16033C29.7128 9.13895 29.796 8.51789 29.7837 8.19015C29.7676 7.75882 29.6057 7.29107 29.0389 7.31012C28.6371 7.3235 28.2868 7.61177 28.3121 8.28441C28.3297 8.75357 28.5725 9.17724 29.0773 9.16033ZM29.0508 6.98495C29.7445 6.96163 30.1809 7.40985 30.2088 8.15506C30.2327 8.79338 29.8864 9.45787 29.0758 9.48504C28.3752 9.50857 27.9146 9.05773 27.8869 8.31599C27.8585 7.56041 28.309 7.00991 29.0508 6.98495Z" fill="#DD0031"/>
<path fill-rule="evenodd" clip-rule="evenodd" d="M32.0486 8.22654C32.3185 8.25749 32.5222 8.13482 32.5503 7.8776C32.5778 7.62719 32.4396 7.46557 32.1628 7.43382L31.845 7.39744L31.7513 8.19251L32.0486 8.22654ZM31.0087 9.16334L31.2445 9.1903L31.4589 7.35335L31.2095 7.32481L31.2404 7.04343L32.303 7.16503C32.7949 7.22139 32.9962 7.53268 32.958 7.88254C32.9126 8.29761 32.6255 8.45572 32.3181 8.45181L32.3172 8.45878C32.4494 8.48423 32.5259 8.60765 32.5929 8.75414L32.8046 9.223C32.8604 9.34404 32.922 9.38229 33.0006 9.39133L33.0895 9.40148L33.0588 9.68272L32.8366 9.65741C32.6351 9.63432 32.5451 9.60311 32.4305 9.3538L32.1635 8.75721C32.0833 8.57432 32.0362 8.53073 31.9233 8.51781L31.7184 8.49436L31.6305 9.2346L31.9073 9.2662L31.8766 9.54744L30.9779 9.44475L31.0087 9.16334Z" fill="#DD0031"/>
<path fill-rule="evenodd" clip-rule="evenodd" d="M33.7514 9.55175L33.9898 9.60627L34.4058 7.80474L34.1542 7.74704L34.216 7.471L35.0814 7.66943L35.0199 7.94547L34.7817 7.89085L34.3655 9.69244L34.6171 9.75008L34.5555 10.0261L33.6898 9.82779L33.7514 9.55175Z" fill="#DD0031"/>
<path fill-rule="evenodd" clip-rule="evenodd" d="M37.4879 9.17548L37.6156 8.81136C37.5393 8.75844 37.4211 8.67952 37.2493 8.61804C36.7079 8.42425 36.3095 8.65487 36.1097 9.22391C35.9281 9.74082 36.1115 10.2164 36.5752 10.3823C36.6854 10.4217 36.839 10.4621 36.9769 10.4748L37.159 9.97641L36.8999 9.88354L36.9933 9.61698L37.8298 9.91639L37.7361 10.1831L37.5027 10.0995L37.2418 10.8221C37.0699 10.8228 36.7535 10.7681 36.5104 10.6812C35.6837 10.3853 35.4759 9.74002 35.703 9.09306C35.9519 8.38425 36.5975 8.06277 37.353 8.33316C37.6189 8.42821 37.8856 8.59325 38.0162 8.70954L37.812 9.29149L37.4879 9.17548Z" fill="#DD0031"/>
<path fill-rule="evenodd" clip-rule="evenodd" d="M38.2191 11.0416L38.4379 11.1507L39.2625 9.50019L39.0313 9.38497L39.1555 9.13161L39.9509 9.52765L39.8267 9.78102L39.6077 9.67206L38.7833 11.3225L39.0146 11.4376L38.8904 11.691L38.0947 11.2951L38.2191 11.0416Z" fill="#DD0031"/>
<path fill-rule="evenodd" clip-rule="evenodd" d="M39.7447 11.8033L39.9403 11.933L40.9631 10.3972L40.7101 10.2294L40.8647 9.99334L41.3937 10.3443L41.5269 12.1801C41.5344 12.3008 41.5339 12.4905 41.5301 12.6159L41.5358 12.6197L42.3659 11.328L42.1416 11.1793L42.2962 10.9431L42.9977 11.4085L42.8428 11.6446L42.6475 11.5149L41.4701 13.2865L41.2085 13.113L41.059 11.1384C41.0506 11.0253 41.0487 10.9085 41.0577 10.8319L41.0482 10.8338L40.2219 12.1198L40.4433 12.2667L40.2886 12.5027L39.5901 12.0393L39.7447 11.8033Z" fill="#DD0031"/>
<path fill-rule="evenodd" clip-rule="evenodd" d="M44.2953 13.2385C44.3387 13.1338 44.37 13.0786 44.3969 13.0334L44.3919 13.0287C44.352 13.0575 44.2981 13.0966 44.1958 13.1479L43.5433 13.4741L44.015 13.9044L44.2953 13.2385ZM42.2533 13.5171L42.4062 13.6567L44.4784 12.6703L44.7947 12.9585L43.9698 15.0823L44.128 15.2264L43.939 15.4357L43.286 14.8404L43.4751 14.6311L43.6383 14.7799L43.8863 14.1963L43.2588 13.6242L42.6921 13.9171L42.8757 14.0846L42.6867 14.2939L42.0642 13.7264L42.2533 13.5171Z" fill="#DD0031"/>
<path fill-rule="evenodd" clip-rule="evenodd" d="M44.5695 15.7302L44.7255 15.9193L46.1507 14.7528L45.9858 14.553L46.2025 14.3729L46.7696 15.06L46.5528 15.2401L46.3968 15.051L44.9717 16.2177L45.429 16.7716L45.7628 16.539L45.9694 16.7895L45.4188 17.2021L44.3528 15.9104L44.5695 15.7302Z" fill="#DD0031"/>
<path fill-rule="evenodd" clip-rule="evenodd" d="M47.3574 23.5598C47.2093 23.6195 47.0905 23.752 47.0324 23.9022C47.2245 24.3794 47.4838 24.4632 47.711 24.3718C48.0238 24.2459 47.9609 23.9286 47.9104 23.8031C47.8076 23.5477 47.5681 23.475 47.3574 23.5598ZM47.7673 22.4596C47.6013 22.4649 47.4351 22.4895 47.3134 22.5384C46.7998 22.7452 46.7959 23.2202 46.8931 23.5852L46.9025 23.5891C46.9773 23.3855 47.1244 23.2381 47.3483 23.148C47.6973 23.0075 48.1369 23.1112 48.3303 23.5917C48.4836 23.9725 48.4423 24.5162 47.8597 24.7507C47.3494 24.9561 46.821 24.7648 46.5183 24.0129C46.2064 23.238 46.361 22.5292 47.151 22.2112C47.3222 22.1423 47.4611 22.0978 47.6518 22.0868L47.7673 22.4596Z" fill="#DD0031"/>
<mask id="mask1_1008_8357" style="mask-type:alpha" maskUnits="userSpaceOnUse" x="9" y="21" width="43" height="19">
<path d="M9.23096 37.5415L50.3207 21.0004L51.2541 23.3189L10.1643 39.86L9.23096 37.5415Z" fill="white"/>
</mask>
<g mask="url(#mask1_1008_8357)">
<path fill-rule="evenodd" clip-rule="evenodd" d="M48.6978 21.6538L50.3206 21.0005L50.438 21.292L50.2854 23.251C50.2742 23.4132 50.2487 23.5774 50.2104 23.7391L49.6903 23.9484C49.7298 23.771 49.7607 23.6008 49.7791 23.4277L49.9443 21.8142C49.9525 21.7299 49.9661 21.6592 49.9985 21.5689L48.8498 22.0314L48.6978 21.6538Z" fill="#DD0031"/>
<path fill-rule="evenodd" clip-rule="evenodd" d="M10.2827 39.4198L10.7271 39.2409L10.1058 37.6976C10.0796 37.7464 10.0586 37.7895 10.0279 37.8367L9.73749 38.2652L9.42722 38.0361L10.0581 37.2085L10.4102 37.0668L11.2076 39.0474L11.6587 38.8659L11.7946 39.2037L10.4187 39.7576L10.2827 39.4198Z" fill="#DD0031"/>
</g>
<path fill-rule="evenodd" clip-rule="evenodd" d="M13.1511 37.2915C13.2992 37.2319 13.4181 37.0996 13.4761 36.9492C13.2842 36.4723 13.0246 36.3881 12.7974 36.4796C12.4847 36.6055 12.5473 36.9228 12.598 37.0487C12.7007 37.3037 12.9404 37.3763 13.1511 37.2915ZM12.741 38.3919C12.9072 38.3868 13.0732 38.362 13.1951 38.313C13.7085 38.1063 13.7125 37.6315 13.6153 37.2666L13.606 37.2623C13.5311 37.4658 13.384 37.6136 13.1601 37.7038C12.8112 37.8442 12.3716 37.7401 12.1783 37.26C12.025 36.8792 12.066 36.3352 12.6487 36.1007C13.1589 35.8953 13.6874 36.0866 13.9901 36.8385C14.302 37.6134 14.1474 38.3221 13.3573 38.6402C13.1862 38.7091 13.0473 38.7536 12.8568 38.7649L12.741 38.3919Z" fill="#DD0031"/>
<path fill-rule="evenodd" clip-rule="evenodd" d="M30.8328 21.989C31.8408 22.6085 33.5962 21.5675 34.5921 19.9259C35.5875 18.2846 35.3853 16.7648 34.3771 16.1452C33.3691 15.5258 31.9365 16.0409 30.9407 17.6823C29.9451 19.3238 29.8247 21.3694 30.8328 21.989Z" fill="#DD0031"/>
<path fill-rule="evenodd" clip-rule="evenodd" d="M28.2257 21.7122C29.1553 21.5542 29.6681 20.0225 29.4105 18.5307C29.1531 17.0391 28.2383 16.2433 27.3087 16.4016C26.3793 16.5596 25.7864 17.6114 26.0438 19.1028C26.3012 20.5949 27.2961 21.8704 28.2257 21.7122Z" fill="#DD0031"/>
<path fill-rule="evenodd" clip-rule="evenodd" d="M33.6762 27.6065C34.9513 25.6582 35.9545 25.6466 35.7712 25.1926C35.5693 24.6922 33.8202 24.2951 32.8191 24.5958C32.9391 24.8608 33.0496 25.1406 33.1501 25.4359C33.388 26.135 33.5634 26.8655 33.6762 27.6065Z" fill="#DD0031"/>
<path fill-rule="evenodd" clip-rule="evenodd" d="M22.6828 24.7947C23.4882 25.0672 24.3863 24.8997 24.5595 24.3769C24.733 23.8537 24.1161 23.1726 23.3108 22.9003C22.5052 22.6277 21.8657 22.8841 21.692 23.4072C21.5186 23.9302 21.8772 24.5223 22.6828 24.7947Z" fill="#DD0031"/>
<path fill-rule="evenodd" clip-rule="evenodd" d="M26.1067 22.6823C26.6298 22.1266 26.2163 20.8784 25.3246 20.0312C24.4331 19.1839 23.4562 19.1105 22.933 19.6663C22.4099 20.222 22.5383 21.1965 23.4297 22.0434C24.3213 22.8905 25.5834 23.2377 26.1067 22.6823Z" fill="#DD0031"/>
<path fill-rule="evenodd" clip-rule="evenodd" d="M30.2586 25.753C30.194 25.5822 30.0289 25.2043 29.6055 25.3752C29.0857 25.6044 28.8956 26.7707 29.33 27.1956C30.0169 27.701 30.5326 26.4756 30.2586 25.753Z" fill="#DD0031"/>
<path fill-rule="evenodd" clip-rule="evenodd" d="M38.0514 32.2599C38.1297 31.7049 37.4979 31.3383 37.0041 31.5712L36.9733 31.5857C36.7091 31.7103 36.6082 31.986 36.5546 32.2744C36.5546 32.2744 36.3463 33.5358 35.6565 35.0957C34.6882 37.2855 33.0538 38.8961 31.2331 39.465C28.6562 40.2699 26.38 38.3359 25.3605 35.3283C23.9295 31.1079 25.1677 24.8196 28.3866 23.8765C29.5154 23.5457 30.6509 24.2038 31.3758 26.3345C32.2153 28.8014 31.9011 33.0213 30.0286 33.657C29.1638 33.9506 28.5494 33.1883 28.3039 32.3951C27.7723 30.6757 28.4299 29.8793 28.2139 29.1831C28.0868 28.7736 27.6114 28.7635 27.3535 28.978C26.9097 29.3468 26.406 31.0243 27.0095 32.8764C27.7466 35.1385 29.4708 35.242 30.3477 34.9442C32.9422 34.0637 33.982 29.5058 32.6816 25.6842C31.8398 23.21 30.1584 22.0709 28.0839 22.6588C24.0509 23.802 22.0431 30.5258 23.9841 35.9354C25.1449 39.1706 27.9902 41.7834 31.6997 40.6972C35.8046 39.4953 37.6709 34.958 38.0514 32.2599Z" fill="#DD0031"/>
<path fill-rule="evenodd" clip-rule="evenodd" d="M38.2607 35.8961L38.4341 35.8263L38.7762 36.1756L38.7808 35.6867L38.9542 35.6169L39.2438 36.3362L39.0704 36.406L38.9307 36.0589L38.9275 36.3863L38.8131 36.4323L38.5839 36.1985L38.7236 36.5455L38.5503 36.6153L38.2607 35.8961ZM37.6084 36.1587L38.1535 35.9392L38.2187 36.1012L38.0328 36.176L38.2572 36.7333L38.0838 36.8031L37.8594 36.2458L37.6736 36.3206L37.6084 36.1587Z" fill="#DD0031"/>
</svg>