<svg width="74" height="75" viewBox="0 0 74 75" fill="none" xmlns="http://www.w3.org/2000/svg">
<path fill-rule="evenodd" clip-rule="evenodd" d="M21.9575 58.3829L22.2582 57.9972C22.1875 57.9024 22.0767 57.7598 21.8941 57.616C21.3195 57.1633 20.7463 57.2789 20.2766 57.8818C19.8498 58.4297 19.8794 59.076 20.3717 59.4635C20.537 59.5936 20.7258 59.7145 20.8289 59.7678L21.1808 59.3444L21.5248 59.6157L20.9984 60.2629C20.8032 60.1927 20.4453 60.0107 20.1596 59.7857C19.2957 59.1053 19.305 58.2452 19.8391 57.5596C20.4242 56.8085 21.3319 56.684 22.1339 57.3155C22.4368 57.554 22.6712 57.8444 22.7821 58.0373L22.3018 58.6541L21.9575 58.3829Z" fill="#DD0031"/>
<path fill-rule="evenodd" clip-rule="evenodd" d="M23.9691 61.794L24.2355 61.9455L24.7246 61.0923L23.4882 60.3889L22.9994 61.242L23.2846 61.4043L23.1091 61.7171L22.128 61.1584L22.3034 60.8459L22.5694 60.9975L23.7315 58.963L23.45 58.803L23.6254 58.4906L24.6067 59.0489L24.4314 59.3617L24.1614 59.2079L23.6766 60.0534L24.9128 60.7569L25.3975 59.9114L25.1158 59.7512L25.2915 59.4386L26.2729 59.9972L26.0972 60.3098L25.8272 60.156L24.6653 62.1904L24.9506 62.3527L24.7752 62.6652L23.7938 62.1065L23.9691 61.794Z" fill="#DD0031"/>
<path fill-rule="evenodd" clip-rule="evenodd" d="M26.1575 62.8802L26.4443 63L27.3508 60.8369L27.0481 60.7107L27.184 60.3788L28.2258 60.8136L28.0895 61.1456L27.8029 61.026L26.8962 63.1888L27.1992 63.3153L27.063 63.6472L26.0213 63.2121L26.1575 62.8802Z" fill="#DD0031"/>
<path fill-rule="evenodd" clip-rule="evenodd" d="M30.9992 62.6517L31.1322 62.18C31.0313 62.1189 30.8752 62.0285 30.6527 61.9642C29.9513 61.7622 29.4649 62.0865 29.257 62.8237C29.0682 63.4936 29.3382 64.0818 29.9389 64.255C30.1404 64.3132 30.3605 64.3538 30.4758 64.3641L30.6421 63.8381L31.0621 63.9592L30.8187 64.7591C30.6119 64.7678 30.2124 64.7348 29.8639 64.6341C28.8095 64.3302 28.495 63.529 28.7315 62.6904C28.9903 61.772 29.783 61.3125 30.7613 61.5947C31.1311 61.7011 31.4569 61.8817 31.6318 62.0188L31.4192 62.7728L30.9992 62.6517Z" fill="#DD0031"/>
<path fill-rule="evenodd" clip-rule="evenodd" d="M32.2345 64.7935L32.5333 64.8343L32.857 62.5072L32.5412 62.4639L32.5878 62.1075L33.7007 62.2599L33.6537 62.6162L33.3465 62.5742L33.1974 63.6378L34.5368 62.7372L34.2036 62.6916L34.2502 62.3352L35.3845 62.4906L35.3378 62.847L35.0953 62.8139L33.7043 63.738L34.8233 65.1479L35.0744 65.1822L35.0275 65.5388L33.8154 65.3726L33.8625 65.0163L34.1782 65.0596L33.1765 63.7985L33.0224 64.9013L33.347 64.9457L33.3003 65.3019L32.1875 65.1497L32.2345 64.7935Z" fill="#DD0031"/>
<path fill-rule="evenodd" clip-rule="evenodd" d="M36.2621 65.2326L36.5678 65.2316L36.5687 62.8807L36.2152 62.8817L36.2125 62.522L38.361 62.5162L38.3842 63.323L37.978 63.3242L37.9487 62.8769L37.0622 62.8792L37.06 63.8267L37.9334 63.8243L37.9361 64.2102L37.0628 64.2129L37.0611 65.2303L37.9912 65.2278L38.0228 64.7277L38.4331 64.7267L38.4041 65.5862L36.2644 65.5922L36.2621 65.2326Z" fill="#DD0031"/>
<mask id="mask0_1057_4295" style="mask-type:alpha" maskUnits="userSpaceOnUse" x="38" y="59" width="11" height="8">
<path d="M38.7261 62.7275L46.9128 59.4319L48.4707 63.3017L40.2839 66.5974L38.7261 62.7275Z" fill="white"/>
</mask>
<g mask="url(#mask0_1057_4295)">
<path fill-rule="evenodd" clip-rule="evenodd" d="M39.7941 65.1596L40.0876 65.1157L39.7509 62.7883L39.3711 62.8451L39.3171 62.4896L40.1111 62.371L41.7887 63.9965C41.8979 64.1043 42.0576 64.2846 42.1601 64.4065L42.1687 64.4056L41.8569 62.4736L41.5204 62.5239L41.4662 62.1681L42.5191 62.0107L42.5733 62.3665L42.2799 62.4103L42.6708 65.0935L42.2781 65.152L40.4678 63.4089C40.3642 63.3088 40.2638 63.1995 40.2073 63.1193L40.2002 63.1293L40.5107 65.0524L40.8428 65.003L40.8972 65.3584L39.8482 65.5151L39.7941 65.1596Z" fill="#DD0031"/>
<path fill-rule="evenodd" clip-rule="evenodd" d="M46.5385 63.0954L46.6848 63.4763C46.7877 63.4886 47.0133 63.4679 47.2414 63.3805C47.6039 63.2414 47.7813 62.9856 47.6632 62.6783C47.5751 62.4488 47.4023 62.4116 47.0637 62.4428L46.5039 62.493C46.1418 62.5237 45.7746 62.4436 45.5986 61.9849C45.3818 61.4193 45.753 60.9622 46.3517 60.7327C46.7221 60.5905 47.0291 60.5621 47.2683 60.541L47.5122 61.1759L47.0803 61.3416L46.9483 60.9972C46.8778 60.9963 46.7138 61.0073 46.4941 61.0917C46.0706 61.2541 45.9691 61.5137 46.0542 61.735C46.1501 61.9848 46.3662 62.0008 46.6479 61.9679L47.1318 61.9139C47.4906 61.8752 47.9223 61.9164 48.1155 62.4204C48.3342 62.9899 48.0435 63.4867 47.3673 63.7458C47.1596 63.8253 46.6342 63.9657 46.3482 63.9626L46.0826 63.2703L46.5385 63.0954Z" fill="#DD0031"/>
</g>
<path fill-rule="evenodd" clip-rule="evenodd" d="M49.922 59.8397C49.8132 59.745 49.7592 59.6849 49.7152 59.634L49.7076 59.6383C49.7265 59.6983 49.7526 59.7793 49.774 59.9236L49.9101 60.8463L50.612 60.4473L49.922 59.8397ZM49.4562 62.4271L49.6838 62.2977L49.3108 59.3892L49.7813 59.1217L52.0097 60.9759L52.245 60.8422L52.4222 61.1554L51.4509 61.7074L51.2737 61.3943L51.5165 61.2563L50.9123 60.7208L49.9791 61.2513L50.1087 62.0564L50.382 61.9009L50.5594 62.2142L49.6335 62.7405L49.4562 62.4271Z" fill="#DD0031"/>
<path fill-rule="evenodd" clip-rule="evenodd" d="M53.245 60.1602L53.4765 59.9747L52.0251 58.1254L51.7258 58.3657L51.5015 58.0843L52.1277 57.582L54.3864 58.1482C54.5344 58.1869 54.7622 58.2628 54.9116 58.3171L54.9184 58.3117L53.686 56.7929L53.4206 57.0058L53.1963 56.7246L54.0269 56.0585L54.2508 56.3397L54.0194 56.5252L55.6948 58.656L55.385 58.9044L52.9533 58.3029C52.8141 58.2684 52.6728 58.2241 52.5842 58.1827L52.583 58.1951L53.8099 59.7072L54.072 59.4968L54.2959 59.7781L53.469 60.4417L53.245 60.1602Z" fill="#DD0031"/>
<path fill-rule="evenodd" clip-rule="evenodd" d="M57.4954 56.3433C57.9946 55.7888 57.9379 55.1709 57.3708 54.6552C56.8618 54.1922 56.2748 54.1895 55.7726 54.7474L55.4424 55.1138L57.1683 56.7065L57.4954 56.3433ZM56.6336 57.3L56.8412 57.0698L55.1153 55.477L54.8962 55.7203L54.6306 55.4787L55.6001 54.4019C56.2573 53.6723 57.0585 53.6399 57.7166 54.2382C58.3876 54.8482 58.5204 55.7419 57.8662 56.4684L56.8995 57.5419L56.6336 57.3Z" fill="#DD0031"/>
<path fill-rule="evenodd" clip-rule="evenodd" d="M57.0526 52.8277L57.6544 51.8533L57.9589 52.0441L57.798 52.3042L59.8193 52.7905C59.9269 52.8166 60.0312 52.856 60.1362 52.8858L60.1409 52.8783C60.068 52.7966 59.9806 52.7213 59.9159 52.6344L58.946 51.3879L58.439 51.2665L58.2828 51.5195L57.9784 51.329L58.5666 50.3769L58.871 50.5674L58.7103 50.8278L60.6659 51.3453C60.7808 51.3759 60.9001 51.4246 61.0141 51.4652L61.0185 51.4578C60.9366 51.3652 60.8466 51.278 60.7672 51.1816L59.4755 49.5895L59.2986 49.8758L58.9942 49.6853L59.5684 48.7554L59.8728 48.9461L59.7327 49.1729L61.4918 51.4754L61.2069 51.9365L59.5537 51.5206L59.549 51.5282L60.6047 52.9111L60.3199 53.3721L57.4992 52.7877L57.3569 53.0182L57.0526 52.8277Z" fill="#DD0031"/>
<path fill-rule="evenodd" clip-rule="evenodd" d="M62.3015 49.053L62.4235 48.7673L60.2797 47.8162L60.1509 48.118L59.8219 47.9749L60.2654 46.9369L60.5944 47.08L60.4724 47.3657L62.6162 48.3168L62.7451 48.0153L63.0743 48.158L62.6305 49.1961L62.3015 49.053Z" fill="#DD0031"/>
<path fill-rule="evenodd" clip-rule="evenodd" d="M62.1218 44.1859L61.6528 44.0436C61.5912 44.1439 61.4996 44.2991 61.4335 44.5217C61.2253 45.2228 61.5435 45.7176 62.276 45.9398C62.9413 46.1417 63.5296 45.8811 63.708 45.2807C63.768 45.0792 63.8104 44.8587 63.822 44.7433L63.2998 44.5664L63.4245 44.1465L64.2188 44.4059C64.2255 44.6139 64.1887 45.0147 64.0852 45.3632C63.772 46.4167 62.9709 46.7183 62.138 46.4654C61.2256 46.1885 60.7758 45.3838 61.0663 44.4057C61.1759 44.0361 61.359 43.7119 61.4972 43.5389L62.2462 43.766L62.1218 44.1859Z" fill="#DD0031"/>
<path fill-rule="evenodd" clip-rule="evenodd" d="M64.5449 41.0755L64.5876 40.7715L63.6158 40.6215L63.4182 42.0321L64.39 42.1824L64.4355 41.857L64.7902 41.9083L64.6332 43.0285L64.2786 42.9768L64.3213 42.6728L62.0058 42.3183L61.9608 42.6397L61.6062 42.588L61.7631 41.4682L62.1175 41.5196L62.0745 41.8278L63.0376 41.9768L63.2352 40.566L62.2722 40.4172L62.2271 40.7383L61.8726 40.6867L62.0294 39.5669L62.3839 39.6186L62.3408 39.9268L64.6562 40.2811L64.7017 39.9556L65.0565 40.0072L64.8995 41.1271L64.5449 41.0755Z" fill="#DD0031"/>
<path fill-rule="evenodd" clip-rule="evenodd" d="M11.9144 37.6647L11.9065 37.3578L10.9245 37.3702L10.9609 38.7945L11.9427 38.7822L11.9345 38.4535L12.2921 38.4459L12.3208 39.5767L11.9632 39.5843L11.9554 39.2775L9.61635 39.31L9.62474 39.6344L9.26675 39.6421L9.23805 38.5113L9.59571 38.5037L9.60371 38.8149L10.5769 38.8028L10.5407 37.3783L9.56754 37.3904L9.57565 37.7149L9.21799 37.7225L9.18924 36.5917L9.5469 36.5841L9.55496 36.8953L11.8939 36.8626L11.8854 36.534L12.2434 36.5263L12.272 37.6569L11.9144 37.6647Z" fill="#DD0031"/>
<path fill-rule="evenodd" clip-rule="evenodd" d="M12.1346 34.1034C12.2409 33.3002 11.4844 33.0592 11.0736 33.0027C10.5328 32.9284 9.91616 33.0293 9.82146 33.7456C9.75454 34.2536 10.0401 34.7571 10.8836 34.873C11.4717 34.9539 12.0503 34.7416 12.1346 34.1034ZM9.41889 33.6594C9.53483 32.7823 10.1843 32.3324 11.1188 32.4608C11.9187 32.5709 12.6744 33.152 12.5388 34.1767C12.4217 35.0624 11.764 35.5422 10.8341 35.4142C9.88681 35.2841 9.29513 34.5971 9.41889 33.6594Z" fill="#DD0031"/>
<path fill-rule="evenodd" clip-rule="evenodd" d="M12.4949 31.7068L12.5875 31.4098L10.3583 30.6826L10.2554 31.0128L9.91366 30.9042L10.2129 29.9425L12.6479 29.7885C12.732 29.7832 12.8206 29.7929 12.9063 29.7971L12.9089 29.7889C12.8364 29.7427 12.7582 29.6995 12.6921 29.6463L10.7808 28.1193L11.0647 27.2079L11.4065 27.3166L11.3023 27.6511L13.542 28.3449L13.6408 28.0271L13.9826 28.1358L13.6507 29.2021L13.3088 29.0933L13.3986 28.8049L11.4323 28.161L11.4198 28.171C11.5374 28.2498 11.6629 28.3172 11.7723 28.4072L13.4736 29.7706L13.3277 30.239L11.2406 30.3795C11.0765 30.3917 10.9173 30.3732 10.7543 30.3673L10.7515 30.3757L12.7097 31.0168L12.8127 30.6865L13.1546 30.7951L12.8367 31.8154L12.4949 31.7068Z" fill="#DD0031"/>
<path fill-rule="evenodd" clip-rule="evenodd" d="M14.0488 27.1784L14.1839 26.9039L12.0941 25.8402L11.9379 26.1579L11.6168 25.9976L12.5665 24.0679L13.2944 24.4119L13.1148 24.7766L12.7041 24.6008L12.3124 25.3969L13.1537 25.8272L13.5396 25.0426L13.884 25.2147L13.4981 25.9992L14.402 26.4606L14.8132 25.6252L14.3823 25.3709L14.564 25.0022L15.3155 25.4168L14.3696 27.3387L14.0488 27.1784Z" fill="#DD0031"/>
<path fill-rule="evenodd" clip-rule="evenodd" d="M17.5105 21.5191C18.0173 20.8895 17.4935 20.2888 17.1703 20.0262C16.7452 19.6803 16.1641 19.4444 15.7122 20.0061C15.3917 20.4044 15.3762 20.983 16.0394 21.5224C16.5019 21.8986 17.1078 22.0197 17.5105 21.5191ZM15.4116 19.7224C15.965 19.0346 16.7551 18.9899 17.4897 19.5874C18.1188 20.099 18.4657 20.9895 17.8192 21.7928C17.2604 22.4874 16.4479 22.5531 15.7168 21.9583C14.9717 21.3528 14.8198 20.4577 15.4116 19.7224Z" fill="#DD0031"/>
<path fill-rule="evenodd" clip-rule="evenodd" d="M19.1479 19.6433L19.3709 19.4345L17.7841 17.701L17.526 17.9429L17.2813 17.6795L18.8482 16.2114L19.4101 16.7904L19.1139 17.0678L18.7904 16.7582L18.144 17.3639L18.7821 18.0637L19.4765 17.4131L19.7392 17.6957L19.0447 18.3462L19.7307 19.0972L20.0047 18.8406L20.2494 19.1041L19.3925 19.9067L19.1479 19.6433Z" fill="#DD0031"/>
<path fill-rule="evenodd" clip-rule="evenodd" d="M23.4375 16.1701L23.7055 16.006L22.4963 13.9884L21.8896 14.3598L22.1076 14.7511L21.7356 14.9788L21.3303 14.2804L23.6931 12.8338L24.1282 13.514L23.7563 13.7418L23.5084 13.3688L22.9128 13.7333L24.1221 15.7509L24.4237 15.5663L24.611 15.8736L23.6248 16.4773L23.4375 16.1701Z" fill="#DD0031"/>
<path fill-rule="evenodd" clip-rule="evenodd" d="M27.6658 13.9835L27.9472 13.8648L27.5715 12.9517L26.2657 13.5026L26.641 14.4158L26.9425 14.2887L27.0825 14.6203L26.0455 15.0577L25.9058 14.7262L26.1872 14.6074L25.289 12.4334L24.9918 12.5588L24.8518 12.2274L25.8888 11.7898L26.0285 12.1213L25.7432 12.2418L26.1156 13.1469L27.4215 12.5958L27.0493 11.6906L26.7517 11.8162L26.6121 11.4846L27.6488 11.0471L27.7887 11.3786L27.5035 11.499L28.4013 13.6731L28.7028 13.5459L28.8425 13.8774L27.8058 14.3151L27.6658 13.9835Z" fill="#DD0031"/>
<path fill-rule="evenodd" clip-rule="evenodd" d="M29.6626 13.2512L29.958 13.1737L29.3736 10.8944L29.0316 10.9843L28.9396 10.6362L31.0162 10.0905L31.2398 10.867L30.847 10.9702L30.7074 10.5439L29.8504 10.7691L30.0845 11.688L30.9285 11.4662L31.0274 11.8396L30.183 12.0615L30.4351 13.0482L31.3341 12.8121L31.24 12.3193L31.6367 12.2151L31.8228 13.0559L29.7546 13.5993L29.6626 13.2512Z" fill="#DD0031"/>
<path fill-rule="evenodd" clip-rule="evenodd" d="M36.1933 12.1716C37.0003 12.1444 37.1059 11.3558 37.0904 10.9396C37.07 10.3919 36.8643 9.7979 36.1446 9.82209C35.6343 9.83909 35.1895 10.2051 35.2217 11.0593C35.2441 11.655 35.5524 12.193 36.1933 12.1716ZM36.1598 9.40918C37.0406 9.37957 37.5947 9.94874 37.6302 10.895C37.6606 11.7056 37.2207 12.5494 36.1915 12.5839C35.3018 12.6138 34.7169 12.0413 34.6817 11.0994C34.6456 10.1399 35.2178 9.44088 36.1598 9.40918Z" fill="#DD0031"/>
<path fill-rule="evenodd" clip-rule="evenodd" d="M39.9661 10.9861C40.3089 11.0254 40.5675 10.8696 40.6033 10.543C40.6381 10.225 40.4627 10.0198 40.1112 9.97944L39.7077 9.93324L39.5887 10.9429L39.9661 10.9861ZM38.6457 12.1757L38.9451 12.2099L39.2174 9.87725L38.9006 9.84101L38.9399 9.4837L40.2892 9.63812C40.9139 9.70968 41.1695 10.105 41.121 10.5492C41.0633 11.0763 40.6987 11.2771 40.3084 11.2721L40.3073 11.281C40.4751 11.3133 40.5723 11.47 40.6574 11.656L40.9262 12.2514C40.9971 12.4051 41.0753 12.4537 41.1751 12.4652L41.288 12.4781L41.249 12.8352L40.9668 12.803C40.7109 12.7737 40.5966 12.7341 40.4512 12.4175L40.1121 11.6599C40.0103 11.4277 39.9505 11.3723 39.8071 11.3559L39.5469 11.3262L39.4352 12.2661L39.7867 12.3063L39.7478 12.6634L38.6065 12.533L38.6457 12.1757Z" fill="#DD0031"/>
<path fill-rule="evenodd" clip-rule="evenodd" d="M42.1282 12.6687L42.431 12.7379L42.9592 10.4503L42.6397 10.377L42.7182 10.0265L43.8171 10.2785L43.739 10.629L43.4365 10.5596L42.908 12.8474L43.2275 12.9206L43.1493 13.2711L42.05 13.0192L42.1282 12.6687Z" fill="#DD0031"/>
<path fill-rule="evenodd" clip-rule="evenodd" d="M46.8734 12.1908L47.0355 11.7284C46.9388 11.6612 46.7885 11.561 46.5704 11.4829C45.8829 11.2368 45.377 11.5297 45.1233 12.2523C44.8927 12.9087 45.1256 13.5126 45.7145 13.7232C45.8544 13.7733 46.0494 13.8246 46.2246 13.8407L46.4558 13.2078L46.1267 13.0899L46.2454 12.7514L47.3076 13.1316L47.1886 13.4703L46.8922 13.3641L46.5609 14.2817C46.3426 14.2827 45.9408 14.2131 45.6322 14.1027C44.5824 13.7271 44.3185 12.9076 44.6069 12.0861C44.923 11.186 45.7428 10.7778 46.7021 11.1211C47.0398 11.2419 47.3785 11.4514 47.5443 11.5991L47.285 12.3381L46.8734 12.1908Z" fill="#DD0031"/>
<path fill-rule="evenodd" clip-rule="evenodd" d="M47.8017 14.561L48.0795 14.6995L49.1267 12.6036L48.833 12.4573L48.9907 12.1356L50.0009 12.6385L49.8432 12.9603L49.5651 12.8219L48.5182 14.9177L48.8119 15.0639L48.6542 15.3856L47.6437 14.8828L47.8017 14.561Z" fill="#DD0031"/>
<path fill-rule="evenodd" clip-rule="evenodd" d="M49.7388 15.5277L49.9872 15.6923L51.2859 13.7422L50.9647 13.5291L51.161 13.2293L51.8328 13.675L52.0019 16.0062C52.0115 16.1594 52.0107 16.4004 52.006 16.5596L52.0132 16.5644L53.0673 14.9241L52.7825 14.7353L52.9788 14.4354L53.8696 15.0263L53.6729 15.3261L53.4249 15.1615L51.9298 17.4112L51.5975 17.1908L51.4077 14.6834C51.397 14.5398 51.3947 14.3914 51.4061 14.2941L51.394 14.2966L50.3448 15.9296L50.6259 16.1161L50.4295 16.4159L49.5424 15.8273L49.7388 15.5277Z" fill="#DD0031"/>
<path fill-rule="evenodd" clip-rule="evenodd" d="M55.5178 17.3502C55.5728 17.2173 55.6125 17.1472 55.6468 17.0897L55.6403 17.0837C55.5896 17.1203 55.5212 17.17 55.3914 17.2351L54.5628 17.6493L55.1618 18.1957L55.5178 17.3502ZM52.9247 17.704L53.1189 17.8812L55.7503 16.6286L56.1519 16.9946L55.1044 19.6915L55.3053 19.8745L55.0652 20.1403L54.2361 19.3843L54.4762 19.1185L54.6834 19.3075L54.9983 18.5664L54.2015 17.84L53.4819 18.2119L53.715 18.4245L53.475 18.6903L52.6846 17.9697L52.9247 17.704Z" fill="#DD0031"/>
<path fill-rule="evenodd" clip-rule="evenodd" d="M55.8657 20.5147L56.0638 20.7548L57.8736 19.2734L57.6641 19.0198L57.9393 18.791L58.6594 19.6636L58.3842 19.8923L58.1861 19.6522L56.3764 21.1336L56.957 21.8371L57.3809 21.5417L57.6433 21.8597L56.9441 22.3837L55.5905 20.7435L55.8657 20.5147Z" fill="#DD0031"/>
<path fill-rule="evenodd" clip-rule="evenodd" d="M59.4059 30.4569C59.2178 30.5327 59.067 30.701 58.9932 30.8918C59.2371 31.4977 59.5665 31.6042 59.855 31.488C60.2521 31.3282 60.1723 30.9253 60.1081 30.7658C59.9776 30.4416 59.6734 30.3492 59.4059 30.4569ZM59.9265 29.0598C59.7157 29.0666 59.5046 29.0978 59.3501 29.16C58.6979 29.4225 58.6929 30.0257 58.8164 30.4892L58.8283 30.4941C58.9233 30.2356 59.1101 30.0484 59.3944 29.9339C59.8375 29.7555 60.3958 29.8873 60.6414 30.4974C60.836 30.981 60.7835 31.6714 60.0438 31.9692C59.3957 32.2301 58.7248 31.9871 58.3405 31.0323C57.9443 30.0483 58.1407 29.1483 59.1438 28.7444C59.3612 28.6569 59.5377 28.6004 59.7798 28.5864L59.9265 29.0598Z" fill="#DD0031"/>
<mask id="mask1_1057_4295" style="mask-type:alpha" maskUnits="userSpaceOnUse" x="10" y="27" width="55" height="25">
<path d="M10.991 48.2119L63.1685 27.2074L64.3537 30.1515L12.1761 51.156L10.991 48.2119Z" fill="white"/>
</mask>
<g mask="url(#mask1_1057_4295)">
<path fill-rule="evenodd" clip-rule="evenodd" d="M61.1077 28.0371L63.1684 27.2075L63.3175 27.5777L63.1238 30.0653C63.1095 30.2712 63.0771 30.4798 63.0284 30.6851L62.3681 30.9509C62.4182 30.7256 62.4575 30.5095 62.4808 30.2897L62.6906 28.2408C62.701 28.1338 62.7182 28.0439 62.7594 27.9293L61.3007 28.5166L61.1077 28.0371Z" fill="#DD0031"/>
<path fill-rule="evenodd" clip-rule="evenodd" d="M12.3262 50.5972L12.8905 50.3701L12.1016 48.4104C12.0683 48.4723 12.0416 48.5271 12.0026 48.587L11.6339 49.1311L11.2399 48.8402L12.041 47.7893L12.4882 47.6093L13.5007 50.1244L14.0734 49.8939L14.2461 50.3228L12.4989 51.0262L12.3262 50.5972Z" fill="#DD0031"/>
</g>
<path fill-rule="evenodd" clip-rule="evenodd" d="M15.9691 47.8939C16.1572 47.8182 16.3081 47.6503 16.3818 47.4592C16.1381 46.8536 15.8085 46.7467 15.52 46.8629C15.1229 47.0227 15.2024 47.4257 15.2668 47.5856C15.3971 47.9094 15.7016 48.0016 15.9691 47.8939ZM15.4483 49.2912C15.6594 49.2847 15.8702 49.2533 16.0249 49.191C16.6769 48.9285 16.682 48.3256 16.5586 47.8622L16.5468 47.8568C16.4517 48.1152 16.2649 48.303 15.9805 48.4174C15.5376 48.5957 14.9793 48.4636 14.7338 47.8539C14.5391 47.3703 14.5912 46.6796 15.3312 46.3817C15.979 46.1209 16.6502 46.3638 17.0345 47.3186C17.4306 48.3026 17.2343 49.2026 16.231 49.6065C16.0136 49.694 15.8374 49.7505 15.5954 49.7649L15.4483 49.2912Z" fill="#DD0031"/>
<path fill-rule="evenodd" clip-rule="evenodd" d="M38.4224 28.4623C39.7024 29.249 41.9315 27.9271 43.1961 25.8426C44.4601 23.7583 44.2033 21.8284 42.9231 21.0417C41.6431 20.2551 39.824 20.9092 38.5595 22.9935C37.2951 25.0779 37.1423 27.6756 38.4224 28.4623Z" fill="#DD0031"/>
<path fill-rule="evenodd" clip-rule="evenodd" d="M35.1116 28.111C36.2921 27.9104 36.9432 25.9653 36.6161 24.071C36.2893 22.1769 35.1277 21.1664 33.9472 21.3674C32.767 21.568 32.0141 22.9037 32.3409 24.7975C32.6679 26.6923 33.9312 28.3118 35.1116 28.111Z" fill="#DD0031"/>
<path fill-rule="evenodd" clip-rule="evenodd" d="M42.0326 35.5952C43.6518 33.1211 44.9256 33.1065 44.693 32.5299C44.4366 31.8945 42.2154 31.3902 40.9443 31.7721C41.0966 32.1086 41.2369 32.464 41.3645 32.8389C41.6667 33.7266 41.8894 34.6542 42.0326 35.5952Z" fill="#DD0031"/>
<path fill-rule="evenodd" clip-rule="evenodd" d="M28.0727 32.0249C29.0954 32.3708 30.2358 32.1581 30.4558 31.4943C30.6761 30.8298 29.8927 29.965 28.8701 29.6193C27.8471 29.273 27.035 29.5986 26.8145 30.2629C26.5943 30.9271 27.0496 31.679 28.0727 32.0249Z" fill="#DD0031"/>
<path fill-rule="evenodd" clip-rule="evenodd" d="M32.4209 29.3425C33.0851 28.6368 32.5601 27.0519 31.4277 25.976C30.2957 24.9002 29.0552 24.807 28.3908 25.5126C27.7265 26.2184 27.8896 27.4558 29.0215 28.5312C30.1537 29.607 31.7564 30.0479 32.4209 29.3425Z" fill="#DD0031"/>
<path fill-rule="evenodd" clip-rule="evenodd" d="M37.6928 33.2419C37.6107 33.025 37.4012 32.5452 36.8635 32.7622C36.2034 33.0532 35.962 34.5343 36.5136 35.0738C37.3859 35.7155 38.0407 34.1595 37.6928 33.2419Z" fill="#DD0031"/>
<path fill-rule="evenodd" clip-rule="evenodd" d="M47.5886 41.5047C47.688 40.8 46.8858 40.3345 46.2587 40.6302L46.2196 40.6486C45.8841 40.8068 45.756 41.1569 45.6879 41.5231C45.6879 41.5231 45.4235 43.1249 44.5475 45.1057C43.318 47.8864 41.2425 49.9317 38.9305 50.6541C35.6582 51.6761 32.7677 49.2202 31.4732 45.4011C29.6561 40.0418 31.2284 32.0568 35.3158 30.8591C36.7493 30.4391 38.1911 31.2747 39.1117 33.9804C40.1777 37.1129 39.7787 42.4715 37.4009 43.2787C36.3027 43.6516 35.5226 42.6836 35.2108 41.6764C34.5358 39.493 35.3709 38.4817 35.0966 37.5977C34.9351 37.0776 34.3315 37.0648 34.004 37.3372C33.4404 37.8055 32.8008 39.9356 33.5672 42.2875C34.5032 45.1601 36.6927 45.2914 37.8061 44.9134C41.1007 43.7952 42.4211 38.0074 40.7699 33.1546C39.7008 30.0128 37.5658 28.5663 34.9315 29.3129C29.8103 30.7645 27.2606 39.3027 29.7255 46.1721C31.1994 50.2802 34.8125 53.5981 39.523 52.2187C44.7355 50.6925 47.1054 44.9308 47.5886 41.5047Z" fill="#DD0031"/>
<path fill-rule="evenodd" clip-rule="evenodd" d="M47.8547 46.1221L48.0749 46.0335L48.5092 46.477L48.5152 45.8562L48.7353 45.7676L49.103 46.6809L48.8829 46.7696L48.7055 46.3289L48.7014 46.7446L48.5562 46.803L48.2652 46.5061L48.4426 46.9468L48.2224 47.0354L47.8547 46.1221ZM47.0264 46.4556L47.7186 46.1769L47.8014 46.3825L47.5653 46.4776L47.8502 47.1853L47.63 47.2739L47.3452 46.5662L47.1092 46.6612L47.0264 46.4556Z" fill="#DD0031"/>
</svg>
